<svg id="Layer_1" data-name="Layer 1" xmlns="http://www.w3.org/2000/svg" viewBox="0 0 721 721"><defs><style>.cls-1{fill:#fff;}</style></defs><title>icons lineart</title><path class="cls-1" d="M57.2,64.84H45.54c-19,0-29.09,10.19-29.09,29.38q0,289.74,0,579.49c0,19.22,10.06,29.38,29.08,29.39,216.91,0,406.7,0,580.23,0a41.66,41.66,0,0,0,8.22-.56c13.37-2.84,20.73-12.85,20.73-28.19V591.89c0-111.95,0-227.71.2-341.56A36.17,36.17,0,0,1,661,231.08c9.43-14.06,19.33-28.09,28.9-41.66l8.92-12.65c4.87-7,6.58-13.22,5.37-19.74-2.2-11.86-8.56-18.85-19.45-21.37-11.36-2.62-20.17.68-26.94,10.1-13.56,18.86-27.69,39-43.18,61.67-6.41,9.37-14.56,12.23-24.23,8.5l-6.08-2.35V154.69q0-53.65,0-107.33c0-19.55-10-29.46-29.73-29.46H280.09c-54.29,0-110.43,0-165.64,0C97.59,17.93,87,28.38,86.87,45.2c0,2.06,0,4.12,0,6.42V64.84H57.2Zm584,112.25q3.13-4.47,6.16-8.83c4.92-7.08,9.56-13.76,14.56-20.44a20.81,20.81,0,0,1,28.52-4.9c9.84,6.53,12.39,19,5.94,29.11-3.77,5.88-7.82,11.59-11.74,17.11-1.43,2-2.86,4-4.27,6.05-1,1.48-2.08,2.86-3.19,4.31l-1.54,2.05-5.51,7.38-34.41-24.05Zm-8.06,11.52,34.68,24.22L643.63,247.7l-34.86-24.34Zm16.64,58V358H582.44l1.93-11.13c.06-.35.11-.94.15-1.51a17.38,17.38,0,0,1,2.68-9c11.69-17,23.41-33.69,35.81-51.4Zm-43.6-19.58L641,251.33,448.37,526.51l-34.8-24.33ZM448.45,531.78l-44.16,32.85L393.93,553.1l14.48-48.61Zm-4.64-509h65V129.24L491.8,107c-1.44-1.87-2.79-3.65-4.1-5.36-2.68-3.51-5.2-6.82-7.72-10-2-2.51-3.31-3-3.54-3s-1.65.57-3.66,3.17c-2.43,3.13-4.8,6.29-7.55,10l-4.35,5.77L443.81,130ZM91.36,46.28c0-15.4,8.43-23.88,23.66-23.89,97.49,0,196.6,0,292.46,0h17c1.24,0,2.38.08,3.6.15l1.87.12,9,.47V43.31q0,12,0,24c0,21.71,0,44.15-.08,66.24,0,5.44.73,5.67,1.87,6a2.51,2.51,0,0,0,.83.15c.24-.06,1.24-.55,3.89-4.17,5.21-7.1,10.49-14.07,16.08-21.46l7.27-9.62,7.59-10.08,21.27,28.27,3.52,4.67c2.48,3.28,5,6.66,7.55,10,1.93,2.62,2.57,2.42,3.32,2.18,1.09-.35,1.81-.59,1.81-4-.06-23.73,0-47.85,0-71.17V22.6h9.5c3.67,0,7.32,0,10.94-.07,8.82-.09,17.94-.19,27,.29,10,.54,17.35,8.24,18.38,19.18a68.5,68.5,0,0,1,.18,7.46c0,.74,0,1.49,0,2.23V86c0,52.7,0,107.18-.18,160.78a33.27,33.27,0,0,1-5.59,18c-10.49,15.29-21.29,30.72-31.73,45.64-8.85,12.63-18,25.7-26.9,38.6-4.37,6.34-10.06,9.29-17.9,9.29h-.1c-49.84-.16-100.4-.17-150.28,0H347a24.17,24.17,0,0,1-18.12-7.6c-21.67-21.76-43.74-43.84-65.09-65.2-24.7-24.72-50.24-50.28-75.31-75.48-3.38-3.41-6.19-4.6-10.56-4.54-18.42.25-36.44.21-55.52.17q-10.72,0-21.6,0h-9.5V117.41C91.33,94.1,91.32,70,91.36,46.28Zm80.75,164.08a26,26,0,0,1,17.22,7.33c47.09,46.73,94.41,94,140.64,140.55a13.84,13.84,0,0,0,11.15,4.64h.17c34.16-.21,68.88-.18,102.45-.16l34,0h27l-9.64,14.71-2,3.08c-1.16,1.81-2.17,3.37-3.26,4.92L468,416.59c-20.57,29.34-41.83,59.67-62.62,89.58a41,41,0,0,0-5.32,11.08c-3.47,11.18-6.86,22.63-10.14,33.7-2.85,9.63-5.8,19.59-8.8,29.38-1.19,3.87-.59,4.29.41,5,.66.45,1.23.84,4.43-1.54q11-8.21,22-16.33c10.74-7.94,21.84-16.16,32.66-24.33a30.79,30.79,0,0,0,6.34-6.94C480.83,488,520.93,430.84,561.72,372.23c4.63-6.65,10.58-9.69,18.66-9.59,14.32.18,28.48.15,43.48.12l16.88,0h9.5V445.1q0,113.53,0,227.06c0,18.8-7.61,26.48-26.28,26.48H47.45c-18.84,0-26.53-7.6-26.53-26.22V211.24l8.86-.6,2.16-.18c1.63-.14,3.33-.28,5.14-.28l21.21,0C95.59,210.14,134.16,210.1,172.11,210.36ZM75,69.39a12.83,12.83,0,0,1,3.35.49l.56.13,7.48,1.63V205.32H20.92V158q0-31.76,0-63.51c0-17.11,8.07-25.1,25.37-25.13,8.63,0,17.38,0,25.86.06Z"/><path class="cls-1" d="M208.18,417h-1a96.88,96.88,0,0,0-68.41,27.9,94.17,94.17,0,0,0-28.46,66.84c-.4,53.32,41.94,97,94.4,97.44h.78c53.18,0,96.64-42.67,97.07-95.47S260.66,417.48,208.18,417ZM271,578a91.49,91.49,0,0,1-65,26.75h-.54a91.62,91.62,0,0,1-63.7-156.57,91.53,91.53,0,0,1,65-26.73H207A91.55,91.55,0,0,1,271,578Z"/><rect class="cls-1" x="298.49" y="253.16" width="215.07" height="3.55"/><rect class="cls-1" x="251.53" y="206.2" width="191.59" height="3.57"/><rect class="cls-1" x="157.81" y="135.59" width="167.88" height="3.59"/><rect class="cls-1" x="157.81" y="67.53" width="167.88" height="3.59"/><rect class="cls-1" x="345.66" y="300.08" width="144.39" height="3.62"/><rect class="cls-1" x="334.23" y="276.58" width="167.26" height="3.62"/><rect class="cls-1" x="251.53" y="88.69" width="73.97" height="3.59"/><rect class="cls-1" x="157.62" y="88.7" width="50.5" height="3.58"/><rect class="cls-1" x="251.53" y="112.31" width="73.97" height="3.59"/><rect class="cls-1" x="157.62" y="112.31" width="50.5" height="3.58"/><rect class="cls-1" x="486.29" y="206.04" width="27.03" height="3.64"/><rect class="cls-1" x="277.05" y="227.24" width="166.08" height="3.57"/><rect class="cls-1" x="466.94" y="227.08" width="46.38" height="3.64"/><path class="cls-1" d="M213.62,561.79a42.88,42.88,0,0,0,22.77-9.62l-3.82-3.33c-20.86,13.29-42.79,11.54-58.58-5.19a44.32,44.32,0,0,1-1-60.12c15.6-17.59,37-19.69,59.55-6.17l3.69-3.23A47,47,0,0,0,208.9,464c-.77,0-1.55-.06-2.32-.06a49.3,49.3,0,0,0-34.72,14.24,49.17,49.17,0,0,0,2.92,72.47A51.18,51.18,0,0,0,213.62,561.79Z"/></svg>