<svg id="Layer_1" data-name="Layer 1" xmlns="http://www.w3.org/2000/svg" viewBox="0 0 721 721"><defs><style>.cls-1{fill:#fff;}</style></defs><title>icons lineart</title><path class="cls-1" d="M266.93,625.46c.72-1.67,1.5-3.27,2.25-4.82l1-2.09,2.78-5.88,6.21,1.92c54.93,17,108.54,17,163.92.06l6.23-1.92,2.76,5.91c.34.73.68,1.43,1,2.11.72,1.51,1.4,2.94,2.05,4.45,21.23,49.23,70.27,79.85,124.92,78a119.45,119.45,0,0,0,16.29-1.67c29.23-5,57.28-21.18,76.93-44.39a126.39,126.39,0,0,0,28-62.7,136,136,0,0,0-12.23-80.6c-13.36-26.85-34.81-46.89-63.77-59.58-1.43-.63-2.76-1.29-4-1.92l-1.57-.77L614.43,449l1.2-5.75c16.93-80.53,16.94-86.69.31-164.66l-1.12-5.24,4.6-2.76c3.64-2.18,7.33-4.26,10.9-6.27,7.77-4.38,15.12-8.52,21.79-13.5,26.13-19.49,42.79-45.92,49.51-78.55a19.3,19.3,0,0,1,1.22-3.68V126c-.64-2.28-1.25-4.57-1.83-6.8a146.15,146.15,0,0,0-4.7-15.59C689.06,84.79,679.07,68.79,666.62,56a124.15,124.15,0,0,0-34.25-24.66c-31.13-15.28-69.64-17.92-100.49-6.87-34.78,12.45-60.43,35.86-76.24,69.58-.59,1.26-1.15,2.53-1.72,3.8-.44,1-.88,2-1.33,3a8.17,8.17,0,0,1-3,3.42l-.27.19-3.08,2.37-3.71-1.15C388.41,88.9,333.48,89,279.31,105.81l-6.05,1.89-2.87-5.65c-1.15-2.26-2.24-4.51-3.29-6.69-2.24-4.61-4.35-9-6.79-13.07a143.36,143.36,0,0,0-16.1-22.07,125.7,125.7,0,0,0-35.84-27.87C178.05,16.6,140.58,13.49,108.12,24a150.4,150.4,0,0,0-16.65,6.57A129.63,129.63,0,0,0,63,48.36c-20.84,17.3-35.21,42.19-41.56,72C10,174.21,27.71,219,74.1,253.58c5.71,4.24,12.17,7.68,19,11.31,3.24,1.72,6.59,3.5,9.9,5.39l5.22,3L106.44,279c-16.78,54-16.68,109,.3,163.41l1.85,5.93-5.49,2.92-1.13.62c-.83.46-1.69.94-2.68,1.37C42.1,478.41,12.39,530,19.81,591.18c1.21,10,4.71,19.8,8.42,30.21,1,2.69,1.92,5.38,2.84,8.06a2,2,0,0,0,1,1.31,2.27,2.27,0,0,0,1.8-.06c2.15-.91,2.25-1.7,2-3.29a14.78,14.78,0,0,0-1-2.59c-.35-.76-.7-1.53-1-2.29-9-22.73-12.22-44.89-9.47-65.87,2.82-21.49,11.88-41.9,26.94-60.67C81.8,458,123,442.66,170.53,451.6c50.9,9.57,84.63,41,97.54,90.84,13.12,50.66-1.58,94.79-42.51,127.62-39.88,32-86.1,36.82-133.68,14-7.45-3.57-14-8.51-20.25-13.28-2.32-1.76-4.51-3.43-6.76-5a4.89,4.89,0,0,0-4.68-.9c-.26.13-.47.23-.47,1,0,1,1.29,3.66,3,5.18,31,27.59,72.35,38.18,113.41,29.07S250.42,663.72,266.93,625.46Zm394.86-140a123.56,123.56,0,0,1,36.74,88.09c0,68.37-55.71,124.09-124.14,124.21h-.22A124.69,124.69,0,0,1,449.73,573.34c.06-68.28,55.75-124,124.13-124.28h.44A123.17,123.17,0,0,1,661.79,485.45Zm-175.58-426A123.08,123.08,0,0,1,573.78,23h.09A124.62,124.62,0,0,1,698.52,147.38c0,68.51-55.74,124.27-124.13,124.29h0A124.3,124.3,0,0,1,486.21,59.41ZM239.56,481.69c-31.7-31.59-71.71-43.52-118.94-35.5l-6.45,1.1-2-6.23C95.15,386.93,95.1,334.21,112,279.87l1.83-5.88,6.13.65,5.78.63c4.09.46,8,.88,11.84,1.23,23.78,2.12,47.15-2.46,69.48-13.62,5.31-2.66,5.92-4.42,5.94-4.5a2.87,2.87,0,0,0-.49-1.46c-.65-1.17-1-1.21-1.07-1.23-.48-.05-2.36-.06-6.8,2.19a126.4,126.4,0,0,1-57.14,13.75A122.12,122.12,0,0,1,39.77,207.72C14.46,161.25,17.63,114.66,49,73c15.79-21,34.77-35.67,56.42-43.55s45.66-8.84,71.19-2.77c50.39,12,82.69,45.71,93.41,97.57,7.18,34.7-.54,67.77-23,98.28-.32.43-.65.85-1,1.27s-.46.57-.67.86c-1.79,2.47-2,4.25-.59,5.29.74.54,2.11,1.56,4.66-1.62a128.35,128.35,0,0,0,26.31-57.58,125.07,125.07,0,0,0,.32-44.94,40.41,40.41,0,0,1-.47-4.58c0-.66-.09-1.37-.15-2.15l-.51-6,5.74-1.79c54.08-16.89,106.74-16.89,161,0l6.27,1.95-1.11,6.48c-8.13,47.29,3.87,87.38,35.66,119.14,32.14,32.12,71.12,43.79,119.17,35.67l6.44-1.08,2,6.23C627,333.39,627,386.15,610.1,441l-1.93,6.28-6.49-1.1c-47.3-8-87.34,3.93-119,35.57-32.22,32.16-43.93,71.09-35.82,119l1.09,6.44-6.24,2a265.63,265.63,0,0,1-80.32,12.7c-26.67,0-53.45-4.2-80.74-12.59l-6.28-1.94,1.09-6.48C283.43,553.45,271.37,513.37,239.56,481.69Z"/><path class="cls-1" d="M129.54,617.25c22.89-13,45.34-26,66.73-38.5,3.28-1.92,5.16-4.35,5.16-6.66s-1.93-4.84-5.3-6.81c-22.21-13-44.66-25.94-66.74-38.47a11.22,11.22,0,0,0-5.34-1.64,5.11,5.11,0,0,0-2.6.64c-2,1.18-3.24,4-3.27,7.77-.08,8.81-.06,17.78,0,26.46q0,5.88,0,11.74h0c0,3.94,0,7.87,0,11.81,0,8.88,0,18.06,0,27.07,0,3.64,1.22,6.4,3.26,7.57S126.41,619,129.54,617.25ZM124,530l72.86,42L124,614.17Z"/><path class="cls-1" d="M438,431.47a21.93,21.93,0,0,0,.3-4.72v-.26c0-43.6,0-101,0-158,0-.5,0-1,0-1.57s0-1.5,0-2.15a16.44,16.44,0,0,0-3.4-2.75,9.16,9.16,0,0,0-1.32.95c-.83,11-9.15,15.05-14.24,17.54l-.66.32c-2.29,1.13-4.57,2.28-6.86,3.43-6.88,3.46-14,7-21.39,10l-1.93.77c-20,8-40.65,16.33-64.79,12.82a95,95,0,0,0-13.81-.87c-4.27,0-8.63.18-13.12.36-3.31.13-6.74.27-10.13.33-7,.12-12.38,5.31-12.48,12.08-.29,18.82-.28,37.62,0,55.86.1,6.27,5.09,11.22,11.86,11.79,2.09.17,4.23.25,6.7.33l4,.15,6.75.3.58,9.53c.11,1.75.21,3.26.28,4.78q.46,9.09.9,18.18c.66,13.29,1.33,27,2.08,40.54.24,4.5,2,4.43,3,4.39s2.51-.09,2.44-4c-.08-4.6-.34-9.35-.59-13.94-.09-1.65-.18-3.3-.26-4.95-.53-10.71-1.07-21.41-1.62-32.41l-1.18-23.43,8.59.76a75.41,75.41,0,0,0,13.82-.48c9-.85,19.27-1.81,29.53,3.27a16.91,16.91,0,0,0,3,.89c.76.18,1.52.37,2.27.58,2.14.61,4.81.93,5.41-1,.42-1.33.13-1.79,0-2s-1.07-1.39-3.95-2.29c-5.49-1.73-11.09-3.39-16.51-5l-7.09-2.11-5.35-1.6V319.12l93.49-35.69V414.65l-10.82-5.33-4.16-2.07c-2.72-1.37-5.29-2.65-7.82-3.82-3.66-1.7-4.42-.26-4.87.6s-1.21,2.32,2.22,4.22c6.41,3.53,11.34,6.1,16,8.32,6.77,3.24,10.1,8.29,10.17,15.45,0,.9,0,1.49,2.25,1.63C436.79,433.75,437.43,433.7,438,431.47ZM332.56,381.58H280v-68h52.58Z"/><path class="cls-1" d="M164.32,197.06C187.4,183,199.73,161.46,202,131.24c.5-6.7,1.63-13.88,6.43-20.87a39,39,0,0,0,5.87-14.05,6.85,6.85,0,0,0-.84-2.8,36.19,36.19,0,0,0-4.75.31h0c-.36.23-.92.64-1.31.93-.6.45-1.2.89-1.8,1.28-6.31,4.16-12.57,4.27-19.12.35-8.14-4.87-17-5.47-26.22-1.76-10.6,4.24-16.79,12.33-19.49,25.47l-1.46,7.12L132.11,126c-16.79-2.92-30.24-11-41.13-24.68-1.76-2.21-3.25-2.77-3.92-2.77h-.13c-.53.07-1.34.88-2,2.49-8.19,20.52-9.67,51.55,13.11,71.46a22.74,22.74,0,0,1,3.06,3.43c.41.53.89,1.15,1.5,1.89l9,10.9-14.08,1.34c-2.5.23-4.87.47-7.16.69-5,.49-9.76.95-14.47,1.34-2.79.23-2.93.87-3.16,1.94-.45,2.07.1,2.61,1.36,3.26C106.79,214.22,136.3,214.15,164.32,197.06Zm-69.76,4.7,18-12c1.24-.83,2.33-1.53,3.32-2.16,1.71-1.11,3-1.91,4-2.75a3.43,3.43,0,0,0,1.54-2.62,3.23,3.23,0,0,0-1.75-2.37c-1.58-1-3.3-1.95-5.12-2.94a73.63,73.63,0,0,1-8.15-4.9c-16.28-11.76-23.28-28.58-20.82-50L87,110l10.12,6.46,3.06,2c2,1.28,3.83,2.46,5.69,3.62a68.4,68.4,0,0,0,35.05,10.26c3.78.08,4.62-.69,4.65-.73s.92-1,1-5.13c0-.52,0-1,0-1.58a46.7,46.7,0,0,1,.37-6.13,24.69,24.69,0,0,1,21.12-20.52c8.7-1.07,26.53,4.9,28.09,15.9,1.05,7.43.5,15-.1,21.46a74.81,74.81,0,0,1-25.91,50.3,73.62,73.62,0,0,1-48.12,17.74c-1.95,0-3.92-.08-5.89-.23Z"/><path class="cls-1" d="M594,145c0-.72-.07-2.65-4.87-2.75-2.94-.07-5.91-.05-9.05,0H568v-7.5c0-3.24,0-6.37-.07-9.43-.08-6.88-.16-13.38.18-20,.72-14.28,10.64-24,25.28-24.64,2.29-.11,4.52-.09,6.68-.08,2.39,0,4.65,0,6.83-.11,1.49-.1,2.16-.36,2.34-2.42.2-2.25-.72-2.36-1.12-2.4-14.44-1.7-26-1.1-35.34,7.37-7.14,6.46-10.56,14.8-10.46,25.52.06,5.91,0,11.71,0,17.85,0,2.74,0,5.51,0,8.33v7.5H547.06c-.79,0-1.59,0-2.39,0a29.19,29.19,0,0,0-4.18.11c-1.67.22-3,1.36-2.85,2.47.3,2.63,1.05,2.77,2.7,2.85,2.84.13,5.77.1,9.15.07,1.69,0,3.47,0,5.38,0h7.5v15.86q0,7.38,0,14.75c0,11.74,0,23.88.06,35.8,0,2.67.59,4.17,1.07,4.65a2.86,2.86,0,0,0,1.71.39c1.24,0,2.64,0,2.68-5.23.07-10.09.06-20.37,0-30.31q0-6.36,0-12.72v-23.1h12.25c3.06,0,6,0,8.77,0,2.65,0,4.17-.66,4.66-1.17A2.3,2.3,0,0,0,594,145Z"/><path class="cls-1" d="M616,508.29c-9.55-.1-19.3-.08-28.71-.05q-13,0-26,0c-4.28,0-8.63,0-13,0-5.41,0-10.84,0-16.22.08-15.34.17-23.15,8-23.22,23.26-.12,29-.12,57.22,0,84,.07,14.9,8.36,23.14,23.33,23.18,30.09.08,57.59.08,84.07,0,14.89,0,23.12-8.34,23.18-23.36.1-24.93.11-52.2,0-83.36C639.4,516.44,631.52,508.45,616,508.29Zm17.87,107.33c0,11.61-6.09,17.53-18,17.6-9.84.06-19.83,0-29.5,0q-12.28,0-24.58,0H549.57c-5.74,0-11.53,0-17.26,0-11.85-.07-17.87-6-17.91-17.66-.09-27.89-.09-56.23,0-84.22,0-11.73,5.69-17.45,17.3-17.49,28.38-.11,57-.11,84.93,0,11.42,0,17.23,5.95,17.27,17.55C634,560.17,634,588.5,633.89,615.62Z"/><path class="cls-1" d="M557.31,589.85a23.09,23.09,0,0,0,16.49,7h.26a23.11,23.11,0,0,0,23.48-22.89,23.57,23.57,0,0,0-22.81-24h-.5A23.49,23.49,0,0,0,558,556.46a22.9,22.9,0,0,0-7.23,16.21A23.75,23.75,0,0,0,557.31,589.85Zm16.81-34.35h.32A18,18,0,0,1,592,573.71a17.67,17.67,0,0,1-17.84,17.54h-.29a17.88,17.88,0,0,1,.28-35.75Z"/></svg>