<svg id="Layer_1" data-name="Layer 1" xmlns="http://www.w3.org/2000/svg" viewBox="0 0 721 721"><defs><style>.cls-1{fill:#fff;}</style></defs><title>icons lineart</title><path class="cls-1" d="M539.09,340.72c32.86,0,64.66-10.33,92.3-30.41,39-28.32,63-71.55,66-118.58A158.91,158.91,0,0,0,654,72.7a156.55,156.55,0,0,0-116.6-49.27c-46.43.57-85.46,18.27-116,52.6-36.46,41-48.42,90.34-35.55,146.69l3.34,14.64-14.49-4q-32.81-9-62.37-9c-53.24,0-98.35,21.79-134.63,65.18-49.89,59.66-56.55,128.57-19.81,204.81l3,6.29-12.82,10.81c-5.46,4.61-11,9.31-16.61,14q-13.53,11.37-27.07,22.71c-19.68,16.5-40,33.55-59.91,50.46-18.35,15.6-24.79,34.83-19.13,57.16C30.81,677.45,44.62,691,66.39,696s40.47-1.34,55.51-19c18.68-22,37.51-44.44,55.72-66.19q12.28-14.67,24.6-29.35c3.13-3.72,6.27-7.43,9.32-11l8.75-10.34,6.27,3c76.3,36.76,145.2,30.09,204.8-19.84,59.34-49.71,78.25-115.89,56.21-196.69l-4.08-14.94,15,3.86A162.8,162.8,0,0,0,539.09,340.72ZM188.54,591.05l-20.2,24.09c-16.13,19.25-32.8,39.15-49.29,58.66-11,13-24.26,19.6-39,19.6a55.15,55.15,0,0,1-14.45-2c-20.23-5.5-33.38-20-37-40.72C25.22,631.72,32,614.56,48.2,601.06c18-15,36.17-30.3,53.78-45.11q12.85-10.83,25.73-21.63c6.8-5.71,13.6-11.39,19.29-16.15l12.7-10.62,53.55,54ZM473.13,484.68c-30,60-91.33,97-157.61,97a178.24,178.24,0,0,1-24.72-1.71,174,174,0,0,1-96.09-46.6,175.58,175.58,0,0,1-21.53-232A178.17,178.17,0,0,1,297,229.76c31.62-3.53,62.06,1.61,93.06,15.72l8.17,3.72-16.52,36.58-8.19-3.67c-37.28-16.7-74.51-17.49-110.65-2.34-28.38,11.9-50.58,31.8-66,59.16a135.51,135.51,0,0,0,24.33,164C266,546,333.73,553.71,386,521.69c31.06-19,51.63-46.29,61.13-81,9.32-34.05,5.55-66.91-11.54-100.45L431.9,333l6.78-4.41,2.52-1.66c1.73-1.13,3.35-2.2,5-3.24,7.37-4.59,13.56-4.13,17.44-2.93s9.25,4.3,12.75,12.26C499,384.17,497.84,435.2,473.13,484.68ZM379.85,289.75l-15.14,33.59-26.63-51.91ZM374.94,407.6h72.15l-.44,9.42c-.7,14.88-4.85,29.92-12.69,46-2.17,4.47-7.35,6.85-11.34,6.88-8.68.07-17.49.09-26.16.09H368.61Zm-3.12-39.06,54.63-31.78,4.78,6.6c7.86,10.89,14.58,32.74,15.3,49.76l.4,9.38H374.11ZM256.74,407.81,263,470H234.44c-8.61,0-17.35,0-26-.17-6.08-.1-10.21-5.44-11.69-8.58-7-14.88-10.9-29.21-11.86-43.81l-.63-9.59Zm-72.24-5.3.48-9.45c.75-14.93,4.82-29.71,12.44-45.2A13.82,13.82,0,0,1,209,340.45c11.6-.14,23.39-.12,34.79-.12H263l-6.23,62.17Zm36.74,71.82h8.57c9.16,0,17.8,0,26.36.12a13.53,13.53,0,0,1,11.73,8.08c3.45,8.67,6.72,17.25,10.17,26.34q1.46,3.84,2.95,7.75l7.13,18.7-18.72-7.07c-21.39-8.08-39.39-20.85-55-39.05l-12.76-14.87Zm52.62,12.09-4.05-11.9h91.92l-4,11.85c-4.81,14.42-10.52,29.49-22.53,41.45C329.07,534,322.45,537,315.82,537s-13.25-3.07-19.42-9.19C284.62,516.16,279,501.58,273.86,486.42Zm76.76,30.25c1-2.65,2-5.28,3-7.89,3.47-9.16,6.74-17.82,10.28-26.57,2.26-5.59,8.77-7.72,12.59-7.79,8-.14,16.2-.13,24.83-.11h28.3l-12.44,14.79a132,132,0,0,1-54.9,39.16l-18.82,7.26Zm13.14-47H268l-7.19-62h110ZM260.81,402.39l7.1-61.72h84.87l2.69,3.08c12.47,14.28,12.88,30.89,13.25,45.55,0,1.27.06,2.54.1,3.81l.29,9.28Zm1.95-68.91c-3.83,2.35-8.13,2.89-12.16,2.89-1.87,0-3.67-.11-5.35-.22s-3.27-.21-4.61-.19c-4,.07-7.93.06-12.48,0h-26.1l12.4-14.79c15.13-18,32.81-30.58,55.63-39.5l20.26-7.92-8.74,19.92c-1.05,2.4-2.07,4.69-3.06,6.9-2.12,4.78-4.12,9.29-6,13.74a41.16,41.16,0,0,0-1.33,4.46C270,323.82,268.33,330.07,262.76,333.48Zm194.85-21.16c-.33-.2-.57-.34-.75-.43-.19.1-.45.24-.8.46-17.92,11.35-36.24,22.67-54,33.61l-11.82,7.31c-.41.25-.82.53-1.24.81-1.9,1.26-6.2,4.13-11.32,4.13a14.44,14.44,0,0,1-10.22-4.47c-6.68-6.43-5.22-13.59-3.42-18.2h-93.8L274,323.83c3.79-12,9-25.93,19.13-37.87,7.42-8.77,15.41-13.08,23.74-12.77,8.14.29,15.55,4.91,22,13.75,5.46,7.47,9.64,15.45,14.06,23.9,1.92,3.68,3.92,7.5,6,11.3l6.17,11,.29-.6.55-1.18q4.4-9.72,8.78-19.43c8.6-19,17.48-38.71,26.35-58,.9-2,.83-2.45.08-4-21.58-44.76-21.35-95.17.62-138.29s62.65-73,111.58-81.85a168.54,168.54,0,0,1,17.46-1.94c2.6-.19,5.05-.38,7.52-.62l.46,0h.47A154.15,154.15,0,0,1,644.11,68.94a156.6,156.6,0,0,1,48.81,102.51c2.91,37.83-8.86,75.47-33.17,106a154.27,154.27,0,0,1-96.48,56.66C525.78,340,490.22,332.72,457.61,312.32Z"/><path class="cls-1" d="M403.32,604.49v92.82H697.08v-294H626.19V692.81H585.78V515.07h-71.4V693H474.2V604.49ZM631.09,407.62h61.78V693H631.09ZM519.32,519.56H581.1V693H519.32ZM469.4,693.06H407.73V608.69H469.4Z"/><path class="cls-1" d="M315,161.61c14.78-.06,25.17-10.27,25.26-24.85.19-28.91.19-58.68,0-88.47-.09-14.66-10.44-24.9-25.16-24.92-87.17-.09-176.81-.09-266.4,0-14.83,0-25.22,10.49-25.29,25.48-.12,28-.12,57.28,0,87.12.06,15.25,10.46,25.56,25.88,25.67l3.15,0c13.08.09,26.6.18,39.83-.12h.67c6.82,0,12.37,2.42,17.44,7.58,17.38,17.68,34.82,35,52.64,52.77,6.89,6.85,13.77,8.58,21,5.29,7.76-3.52,11.2-9.22,11.13-18.49-.06-8.54,0-17,0-25.92,0-4,0-8,0-12.1v-9h47.65C266.48,161.69,290.94,161.71,315,161.61Zm-124.14-4.29v45.24c0,.39,0,.79.05,1.18a20,20,0,0,1-.47,6.77l-.08.25c-.95,3.48-2.54,9.29-8,11.72a11.33,11.33,0,0,1-4.66,1A18.09,18.09,0,0,1,166,218.52c-3.92-3.84-8-7.72-11.88-11.48-11.75-11.27-23.89-22.93-34.78-35.58C109,159.42,98.89,155.24,84.52,157c-8.59,1.05-17.13.78-25.39.51-3.05-.09-6.19-.19-9.23-.22-14-.12-22.13-8.21-22.16-22.2-.07-27.53-.07-56.17,0-85.13,0-14.15,8.11-22.27,22.15-22.28,83.64,0,169.85,0,263.58,0,14.48,0,22.47,8,22.5,22.65.05,24.75.06,51.35,0,83.72,0,15.42-7.87,23.25-23.31,23.26q-44.66,0-89.32,0Z"/><path class="cls-1" d="M608.68,260.52c10.75,4.08,22.86.3,28.18-8.78a35.58,35.58,0,0,0,4.47-16.59c.08-4.61-1.17-11.65-13-19.55l-6.56-4.4,3.51-7.08,4.36-8.74c3.09-6.18,6-12,8.89-17.94,3.84-7.9,3.9-15.85.18-21.81s-11-9.45-19.85-9.46q-36.64,0-73.29,0H494.14L485.08,102H447.79v3.85c7.06,0,13.73.06,20.43-.11,8.89-.24,14.24,4.06,15.9,12.76,5.13,26.89,10.58,53.41,16.17,80.48,1.66,8-.93,14-7.92,18.37a23.74,23.74,0,0,0-10,27.91,24.92,24.92,0,0,0,24.21,16.85A23.45,23.45,0,0,0,529,243.73c.62-2.91.43-6.53.23-10.36-.1-2.07-.21-4.21-.21-6.44v-9h66.3L594,228.13C590.9,251,600.89,257.56,608.68,260.52Zm28.68-23.24a20.25,20.25,0,0,1-19.74,20.48h-.38A20.25,20.25,0,0,1,597.15,238a20.15,20.15,0,0,1,19.74-20.48h0A20.12,20.12,0,0,1,637.36,237.28ZM519.59,252a19.93,19.93,0,0,1-14,5.74h-.3a20.11,20.11,0,0,1,.28-40.22h.3A20.06,20.06,0,0,1,519.59,252Zm36.75-38.87c-11.78,0-24,0-35.94.09h-.17c-8.81,0-14-4.39-15.49-13.05-1.53-9-3.38-17.87-5.34-27.3-.79-3.81-1.59-7.67-2.39-11.63l-2.18-10.78h64.86q28.88,0,57.76,0c5.62,0,13.58.78,17.69,7.4,4.61,7.44.29,16.17-1.34,19.46-1.06,2.14-2.11,4.3-3.16,6.45-3.21,6.61-6.54,13.44-10.28,20.05-2.9,5.12-9.3,9-14.89,9.09C589.08,213.14,572.44,213.15,556.34,213.16Z"/><path class="cls-1" d="M92.67,68h-.11a24.48,24.48,0,0,0-.17,49h.11A24.63,24.63,0,0,0,117,92.36h0A24.54,24.54,0,0,0,92.67,68Zm20,25.47a20.3,20.3,0,0,1-20.08,19.14l-1,0A20.4,20.4,0,0,1,72.44,91.5a20.06,20.06,0,0,1,35-12.49A19.93,19.93,0,0,1,112.62,93.48Z"/><path class="cls-1" d="M182,68h-.09a24.42,24.42,0,0,0-17.39,41.63A24.25,24.25,0,0,0,181.73,117h.09a24.43,24.43,0,0,0,17.41-41.63A24.26,24.26,0,0,0,182,68Zm13.87,38.86a19.94,19.94,0,0,1-14,5.73h-.29a20.11,20.11,0,0,1,.27-40.22h.29a20.06,20.06,0,0,1,13.7,34.49Z"/><path class="cls-1" d="M271,68a24.42,24.42,0,0,0-17.07,41.77,24.15,24.15,0,0,0,17.4,7.19A24.43,24.43,0,0,0,288.41,75.2,24.16,24.16,0,0,0,271,68Zm14.61,38.4a20,20,0,0,1-14.07,6.19h-.39a20.21,20.21,0,0,1-20.08-19.75,20.13,20.13,0,0,1,19.73-20.47h.39a20.06,20.06,0,0,1,14.42,34Z"/><polygon class="cls-1" points="156.4 569.55 151.65 564.48 147.09 568.91 151.6 573.91 156.4 569.55"/><polygon class="cls-1" points="124.96 601.24 120.4 596.46 115.44 600.77 120.15 605.92 124.96 601.24"/><polygon class="cls-1" points="92.9 632.61 87.99 627.82 84.04 631.57 88.96 636.47 92.9 632.61"/></svg>