<svg id="Layer_1" data-name="Layer 1" xmlns="http://www.w3.org/2000/svg" viewBox="0 0 721 721"><defs><style>.cls-1{fill:#fff;}</style></defs><title>icons lineart</title><path class="cls-1" d="M371.24,492.58c.39,0,.77,0,1.16,0a11.39,11.39,0,0,0,2.29-.08c1.89-.46,2-1.3,2-2.34s-.19-1.71-1.94-2.11a11.19,11.19,0,0,0-2.36-.1l-1.15,0H272.77l-.25-5.55c0-.73-.07-1.27-.08-1.8-.08-4.82-.08-4.82-5.1-4.83q-6,0-12,0h-4.8c-1.54,0-5.56,0-6.56.48-.52,1-.73,4.92-.81,6.43a5.28,5.28,0,0,1-1.19,3l-1.22,2H71v-11c0-1.09,0-2.17,0-3.26-.07-2.95-.38-3.53-3.72-3.58-2.21,0-4.47,0-6.66,0H53.07V298l5-.39c.63-.05,1.2-.1,1.76-.12,4-.11,4.67-.64,4.73-.7s.59-.76.6-4.93c0-4,0-7.93,0-11.89v-4c0-1.78,0-5.87-.48-6.87-1-.52-4.9-.78-6.62-.89a5.1,5.1,0,0,1-3.15-1.41l-1.65-1.19V96.08h9.39c.54,0,1.07,0,1.61,0,1.09,0,2.18,0,3.26,0,3.1-.09,3.45-.76,3.51-3.39.06-2.27,0-4.54,0-6.93,0-1.1,0-2.2,0-3.32v-4.5H81.64c2.93,0,5.91,0,8.86,0,7.2,0,14.64,0,22,0,1.37,0,3-.41,3-2.28,0-1.44-1.06-2.21-3.15-2.27-1.7-.06-3.39,0-5.18,0H71v-4.5c0-1,0-1.95,0-2.86a56.87,56.87,0,0,1,.1-6.13c.22-2.43-.38-3.71-1.51-4.66H30.1V94.63c.95,1.12,2.23,1.72,4.66,1.51a51.92,51.92,0,0,1,6.09-.1q1.29,0,2.64,0H48V266l-2.25,1.25a5.42,5.42,0,0,1-2.9,1.05c-1.34.06-5.4.23-6.31.78-.53,1-.53,5.21-.53,6.63v4.08q0,6.11,0,12.22c0,4.1.56,4.76.62,4.83s.71.6,4.77.68c.47,0,.94,0,1.52.09l5,.32V468.24l-3.17,1a22.63,22.63,0,0,1-7.92.6c-3.81-.17-5.48-.1-6.74,1.41v37.92a3.65,3.65,0,0,0,3.2,1.62c6.22-.06,12.53-.06,18.64,0,5.2,0,10.57,0,15.85,0,2.33,0,3.14-.2,3.21-3.57,0-2.2,0-4.46,0-6.65,0-1,0-2.06,0-3.09v-4.5H242.87l.36,5c0,.57.08,1.05.09,1.52.09,4.14.65,4.81.71,4.87s.72.6,4.77.63h16.31c3.84,0,6.07-.2,6.64-.59.35-.49.64-2.62.79-6.3a5.52,5.52,0,0,1,1-2.79,2.92,2.92,0,0,0,.18-.3l1.28-2.33h96.27ZM35.05,91.25V60.08H66.14V91.25Zm5.71,201.29V273.36H60.22v19.18ZM66.15,505.76H35V474.64H66.15ZM267.47,500H248.15V480.68h19.32Z"/><path class="cls-1" d="M198.19,426.27q1.81-4.87,3.64-9.74c4.51-12.09,9.18-24.59,13.6-36.93,1.72-4.82,4.8-7,10-7h.12c21.09.13,42.9.14,64.81,0h.14c3.53,0,7.8.83,10,6.95,4.74,13.41,9.78,27,14.65,40.13l2.6,7c3,8.07,6.83,10.79,15.24,10.8,27.08,0,51.41,0,74.38,0,3.49,0,6.11-1,7.37-2.76s1.3-4.55.15-7.84q-50.5-144-101.08-288c-2.73-7.76-6.6-10.53-14.81-10.56-9.42,0-19,0-28.29,0H218.22c-9.87,0-13.46,2.54-16.7,11.79Q151.41,283.1,101.3,426.05c-1.37,3.9-1.44,7-.19,8.78s4.15,2.7,8.2,2.7q36.3,0,72.58,0C191.28,437.53,194.94,435,198.19,426.27ZM182.54,433h-.65c-5.28-.19-10.6-.15-16.22-.11-2.43,0-4.91,0-7.47,0h-6.37l3.34-9.41c.72-2,1.38-3.87,2-5.73,1.32-3.75-.09-4.3-.77-4.57-1-.39-1.39-.17-1.55-.08S153.77,414,153,416c-.4,1-.77,2.09-1.16,3.21a45,45,0,0,1-3,7.41c-1.29,2.37-4.65,5.95-8.6,6.1-7.26.27-14.4.24-21.95.2-2.55,0-5.13,0-7.74,0h-5.84l1.49-5.64c.14-.54.26-1,.37-1.49.25-1,.48-2,.83-2.95l22.8-65c24.88-71,50.61-144.35,75.85-216.55,2-5.68,5.67-8.34,11.59-8.34h.35c12.93.23,24.6.22,35.65,0,6.14-.15,10.14,2.73,12.21,8.75,5.75,16.66,11.7,33.57,17.45,49.92l6,17.15c.08.24.17.48.25.73s.2.59.31.89c1.38,3.66,2.74,3.18,3.56,2.89.5-.18,2-.72.73-4.55-2.11-6.14-4.3-12.37-6.42-18.39l-8.25-23.47-8.1-23.05c-.34-1-.65-2-1-3.11-.17-.54-.35-1.11-.54-1.73l-1.87-5.86h6.15c2.39,0,4.75,0,7.08,0,6.81-.06,13.25-.11,19.84.28,4.28.25,7.57,5.08,8.63,8.06,6.49,18.1,12.94,36.55,19.18,54.39l7,19.94,32.28,91.94,39.86,113.54c.43,1.23.78,2.42,1.18,3.79.19.66.39,1.36.63,2.12l1.76,5.81h-6.07l-6.69,0c-7.37,0-14.33,0-21.43-.22-4.4-.16-6.64-5.56-7.22-7.21-9.5-26.9-19.08-54.28-28.35-80.76L306.3,243.46c-.12-.33-.23-.66-.34-1-.2-.61-.39-1.18-.59-1.64-.51-1.13-1.47-2.33-3.2-1.68a2.19,2.19,0,0,0-1.1,3c1.65,5.07,3.47,10.22,5.22,15.2q.85,2.4,1.7,4.8l56,159.8c.33.93.64,1.87,1,3l2.69,8H354.53c-5,0-9.79,0-14.63,0-1.78,0-3.28,0-4.55,0-9.27.1-11-1.13-14.17-10.15-.41-1.16-.88-2.52-1.47-4.11q-6-16.16-11.94-32.34l-5.14-14c-1.05-2.86-1.59-3.68-1.85-3.86s-1.2-.41-4.19-.41H175c-3.06,0-3.83.22-4,.35s-.66.78-1.74,3.66l-1,2.62c-1.18,3.13-2.41,6.37-3.47,9.55-.19.55-.65,2.4,1,3.12s2.66-.52,3.22-1.66a4.29,4.29,0,0,0,.19-.5c.09-.29.19-.57.3-.86,4.17-10.58,5.76-11.67,17-11.67H212.5l-1.77,5.81c-.18.6-.34,1.14-.48,1.64-.31,1.07-.58,2-.94,3q-2.4,6.48-4.82,13c-3.5,9.37-7.11,19.06-10.54,28.61C191.94,430.28,188.2,433,182.54,433Z"/><path class="cls-1" d="M238.48,186c-1-2.91-1.84-2.91-2.73-2.9s-1.62,0-2.69,3.1q-12.44,35.77-24.9,71.53Q196.94,290,185.74,322.21c-.89,2.56-.7,3.84-.48,4.16s1.41.94,4.19.95q16.38,0,32.76,0h27.17c11,0,22.33,0,33.48,0,2.52,0,3.62-.62,3.87-1s.41-1.44-.34-3.59q-12.4-35.47-24.85-70.94Q250,218.94,238.48,186ZM222.9,322.8h-.38c-5.92-.15-11.83-.13-18.09-.1l-7.7,0H190.4l44.81-128.63,4.59,10.6c.28.66.54,1.24.79,1.78.51,1.14.95,2.12,1.33,3.2l2.35,6.65c3.15,8.89,6.4,18.07,9.42,27.19a16.09,16.09,0,0,1,.08,9.73c-4.07,12-8.29,24.13-12.38,35.88q-4.68,13.49-9.34,27C230.5,320.61,227.51,322.8,222.9,322.8Zm58.57-.21H234.64l19.51-56.2,7.46-.5Z"/><path class="cls-1" d="M641.54,504c-44.79-6.18-90.6-12.55-136.23-19-7.68,11.13-15.6,22.47-23.54,33.73,22.47,42,44.24,82.84,64.72,121.34,16,2.2,29.27,4.09,41.83,5.94a16,16,0,0,1,6.64,2.6c7.72,5.28,15.49,10.73,23,16l1,.71.67.48L690.9,563.78l-.14-.1c-8.37-5.82-17-11.8-25.37-17.76a13.36,13.36,0,0,1-3.9-4.73h0C655.15,529.45,648.34,516.82,641.54,504ZM594.93,637a8.26,8.26,0,0,1-7,3.87,10.05,10.05,0,0,1-1.53-.12c-4.92-.73-9.84-1.43-14.77-2.13-5.33-.76-11.38-1.61-17.25-2.5a9.82,9.82,0,0,1-6.78-4.74q-18.39-34.3-36.7-68.65l-1.28-2.4-19.5-36.51c-2.34-4.38-.82-7.59.86-9.52a17,17,0,0,0,1.19-1.66c.29-.45.59-.9.92-1.37l3.15-4.52,19,13.27c14.31,10,29.1,20.33,43.68,30.43a8.84,8.84,0,0,1,4,9.51,18.2,18.2,0,0,0,11.28,20,18.39,18.39,0,1,0-2.35-33c-1.56.89-5.21,3-9.61-.11-14.65-10.31-29.59-20.73-44-30.81L505,506.87c-.36-.26-.72-.53-1.14-.87l-4.6-3.6,3-4.28c.27-.39.55-.76.82-1.12a10.46,10.46,0,0,0,.76-1.09c1.31-2.63,4.06-5.59,9.79-4.78,17.77,2.54,35.84,5.05,53.32,7.49l25.33,3.53c13.4,1.87,27.25,3.81,41,5.67a9.31,9.31,0,0,1,7.51,5.26c4.84,9.2,9.89,18.6,15,27.95a8.51,8.51,0,0,1-.56,9.58C635.78,578.41,616.05,606.67,594.93,637Zm-25-81.73a13.46,13.46,0,1,1,11,21.09,13.33,13.33,0,0,1-7.72-2.44A13.49,13.49,0,0,1,569.88,555.27Zm92.1-5.48L683.8,565l-65.42,93.71L596.55,643.5Z"/><path class="cls-1" d="M607.88,422.61l-9.82,14.08L594,435c-31.16-12.9-61.93-12.72-94.08.55l-17.36,7.17,41.28-59.13-4.1-2.87-55,78.76-12.8-8.94-21,30.13,12.93,9L389,568.3l4.12,2.87,42.43-60.78-1.4,19.85a117.85,117.85,0,0,0,6.24,48.15,113,113,0,0,0,25.05,40.79l3.07,3.25-9.76,14,30,21,20.86-29.86-30.14-21L471.36,618l-4.64-5c-13.65-14.68-22.75-33.55-26.33-54.58-3.46-20.35-1.23-41.22,6.29-58.78l2.66-6.22,11.49,8,21.09-30.22-11.53-8.05,5-4.64c14.22-13.29,33.38-22.61,53.94-26.24s41.63-1.42,59.43,6.18l6.22,2.66-8,11.5,30.17,21.06,21-30ZM480.8,613.43l21.88,15.28-15.19,21.77L465.6,635.2ZM475,472.67l-15.23,21.82-21.85-15.26,15.23-21.82Zm140.78-5.87-21.81-15.23,15.23-21.81L631,445Z"/><path class="cls-1" d="M435.07,488h-8.84c-6.43,0-13.09,0-19.61.06-1.65,0-2.64.86-2.65,2.24,0,2,1.88,2.25,2.69,2.28,2.66.11,5.29.09,8.08.06,1.18,0,2.35,0,3.54,0h16.79Z"/><path class="cls-1" d="M444.76,82.72c0,1.15,0,2.26,0,3.36,0,2.34,0,4.54,0,6.73.07,2.63.61,3.17,3.2,3.24,2.29.07,4.65,0,6.94,0l3.16,0h4.5V268l-5,.32c-.58.05-1.05.08-1.52.09-4.07.08-4.71.62-4.77.68s-.6.73-.61,4.84,0,8.15,0,12.23v4.09c0,1.4,0,5.61.52,6.57.92.55,5,.75,6.4.82a5.23,5.23,0,0,1,3,1.17l2,1.23V451.88h5.25V297.93l5-.33c.57,0,1-.08,1.5-.09,4.09-.08,4.74-.63,4.8-.69s.6-.72.62-4.82,0-8.09,0-12.14v-4.17c0-1.41,0-5.64-.53-6.6-.91-.55-5-.74-6.36-.81a5.34,5.34,0,0,1-3-1.12l-2.08-1.24V96.07h7.59c2.14,0,4.17,0,6.21,0,3.62,0,4-.43,4-4.1s0-7.4,0-11.09c0-6.79-.05-13.82.1-20.74.06-2.71-.51-4-1.54-5h-38c-1.51,1.25-1.58,2.93-1.41,6.73a22.9,22.9,0,0,1-.64,8l-1,3.15H272.93l-.37-5c-.05-.63-.1-1.19-.11-1.75-.11-3.9-.63-4.58-.69-4.65s-.75-.55-4.54-.56H250.9c-2.05,0-5.78,0-6.83.4-.47,1-.74,4.7-.89,6.72a5.13,5.13,0,0,1-1.57,3.27l-.11.12-1.35,1.61-2.16.07h-88.7l-1.2,0a12.2,12.2,0,0,0-2.16.06c-2.1.33-2.26,1.19-2.25,2.27s.19,2,2.3,2.26a14,14,0,0,0,2.21,0h94.6l.33,4.14q.06.6.09,1c.06.65.1,1.12.11,1.58.1,4.22.65,4.87.71,4.93s.77.62,5.17.63,8.76,0,13.14,0h3.17c4.47,0,5.85-.31,6.22-.58s.62-1.72.81-6.25a5.37,5.37,0,0,1,.83-2.63l1.22-2.55H444.76Zm30,190.44v19.46H455.65V273.16Zm-25.31-213h31.27v31H449.46ZM267.55,85.25H248.23V65.94h19.32Z"/></svg>