<?xml version="1.0" encoding="utf-8"?>
<!-- Generator: Adobe Illustrator 26.0.1, SVG Export Plug-In . SVG Version: 6.00 Build 0)  -->
<svg version="1.1" id="Layer_1" xmlns="http://www.w3.org/2000/svg" xmlns:xlink="http://www.w3.org/1999/xlink" x="0px" y="0px"
	 viewBox="0 0 721 721" style="enable-background:new 0 0 721 721;" xml:space="preserve">
<style type="text/css">
	.st0{fill:url(#SVGID_1_);}
	.st1{fill:url(#SVGID_00000181080611314105955540000007503159864097808562_);stroke:#FFFFFF;stroke-miterlimit:10;}
	.st2{fill:url(#SVGID_00000152984670617689848960000016884289524759017125_);stroke:#FFFFFF;stroke-miterlimit:10;}
	.st3{fill:#32857D;}
	.st4{fill:none;stroke:#FFFFFF;stroke-miterlimit:10;}
	.st5{fill:#32857D;stroke:#FFFFFF;stroke-miterlimit:10;}
	.st6{fill:url(#SVGID_00000021837292236054667410000016808847997753636018_);stroke:#FFFFFF;stroke-miterlimit:10;}
	.st7{fill:url(#SVGID_00000166650246617230799030000008253803510627177351_);stroke:#FFFFFF;stroke-miterlimit:10;}
	.st8{fill:url(#SVGID_00000170965701062227891330000000278283400938913696_);stroke:#FFFFFF;stroke-miterlimit:10;}
	.st9{fill:url(#SVGID_00000040561189540117442800000013680054304509493150_);stroke:#FFFFFF;stroke-miterlimit:10;}
	.st10{fill:url(#SVGID_00000017485197283901662420000003356585945689321128_);stroke:#FFFFFF;stroke-miterlimit:10;}
	.st11{fill:url(#SVGID_00000016755584353490229030000014717998155467321219_);stroke:#FFFFFF;stroke-miterlimit:10;}
	.st12{fill:#FFFFFF;}
	.st13{fill:url(#SVGID_00000165204608459909243420000007602255475791994295_);}
	.st14{fill:url(#SVGID_00000049917232812598198070000012670727211212896697_);stroke:#FFFFFF;stroke-miterlimit:10;}
	.st15{fill:url(#SVGID_00000009588596736664611520000000798322234202229180_);stroke:#FFFFFF;stroke-miterlimit:10;}
	.st16{fill:url(#SVGID_00000172409345651865082550000004883180534835028412_);stroke:#FFFFFF;stroke-miterlimit:10;}
	.st17{fill:#55CA8F;stroke:#FFFFFF;stroke-miterlimit:10;}
	.st18{fill:none;stroke:#FFFFFF;stroke-width:0.25;}
	.st19{fill:#DCE4E7;}
	.st20{fill:#A06733;}
	.st21{fill:#F0C88A;}
	.st22{fill:#63C3B2;}
	
		.st23{fill-rule:evenodd;clip-rule:evenodd;fill:#FFFFFF;stroke:url(#SVGID_00000031188768974996651400000017564390048729704626_);stroke-width:0.75;stroke-miterlimit:10;}
	.st24{fill:none;}
	.st25{fill:url(#SVGID_00000060009400860644277150000016396234196093081501_);}
	.st26{fill:url(#SVGID_00000160873822121938377730000008898086115129984443_);}
	
		.st27{fill-rule:evenodd;clip-rule:evenodd;fill:none;stroke:url(#SVGID_00000048463769340632387930000017504396565271162546_);stroke-width:0.75;stroke-miterlimit:10;}
	.st28{fill:#C33B3B;}
	.st29{fill:none;stroke:#C6D6D7;stroke-width:0.25;}
	.st30{filter:url(#Adobe_OpacityMaskFilter);}
	.st31{fill:#020202;}
	.st32{mask:url(#SVGID_00000177477633072221902370000017883064528008344209_);}
	.st33{filter:url(#Adobe_OpacityMaskFilter_00000036974370628601376010000004126445156391641989_);}
	.st34{fill:none;stroke:#FFFFFF;stroke-width:1.348;}
	.st35{fill:none;stroke:#FFFFFF;stroke-width:1.331;}
	.st36{fill:none;stroke:#FFFFFF;stroke-width:1.331;stroke-dasharray:8.1253,8.1253;}
	.st37{fill:none;stroke:#FFFFFF;stroke-width:1.331;stroke-dasharray:8.1405,8.1405;}
	.st38{fill:none;stroke:#FFFFFF;stroke-width:4.937;}
	.st39{fill:none;stroke:#FFFFFF;stroke-width:0.9874;stroke-miterlimit:10;}
</style>
<g>
	<g>
		<g>
			<g>
				<polyline class="st35" points="578.1,480.5 578.1,479.6 578.1,389.2 				"/>
				<path class="st35" d="M578.1,266.9v-27c0-4.7-1.8-9.2-5.3-12.7c-3.4-3.4-7.9-5.2-12.7-5.2h-58.6H363H224.2h-58.5
					c-4.7,0-9.4,1.9-12.7,5.3c-3.4,3.4-5.3,7.9-5.3,12.6v239.6h7.6"/>
				<path class="st35" d="M423.9,479.6l-9.9,10.9H312l-9.9-10.9H104.9v22.6c0,1.2,0.1,2.3,0.3,3.4h109.1v19.2h380.6v-45.2H423.9z
					 M617.5,514.5c2.3-3.6,3.6-7.8,3.6-12.2v-0.6C619.1,505.6,617.9,509.9,617.5,514.5z"/>
				<polygon class="st35" points="508.7,266.9 508.7,389.2 545.1,389.2 545.1,458.1 173.3,458.1 173.3,251.3 545.1,251.3 
					545.1,266.9 				"/>
			</g>
			<path class="st35" d="M424.3,168.3c0,11.3-9.1,20.4-20.4,20.4h-96.8c-7.2,0-13.1-5.9-13.1-13.1s5.8-13.1,13.1-13.1
				c0.2,0,0.5,0,0.7,0c-0.9-2.3-1.4-4.8-1.4-7.3c0-11.3,9.1-20.4,20.4-20.4c3.1,0,6,0.7,8.7,1.9c3.8-12.5,14.4-22.1,27.5-24.3
				c1.9-0.3,4-0.5,6-0.5c19.3,0,35,15.7,35,35c0,0.3,0,0.7,0,1c0,0,0,0,0,0C415.2,147.9,424.3,157,424.3,168.3z"/>
			<g>
				<line class="st35" x1="363" y1="112.4" x2="363" y2="73.7"/>
				<line class="st35" x1="363" y1="320.3" x2="363" y2="188.7"/>
				<g>
					<g>
						<line class="st35" x1="337.1" y1="332.2" x2="334.2" y2="329.5"/>
						<line class="st36" x1="328.4" y1="323.8" x2="203.4" y2="201.7"/>
						<line class="st35" x1="200.5" y1="198.9" x2="197.7" y2="196.1"/>
					</g>
				</g>
				<g>
					<g>
						<line class="st35" x1="387.3" y1="330.4" x2="390.1" y2="327.7"/>
						<line class="st37" x1="396" y1="322.1" x2="523" y2="201.6"/>
						<line class="st35" x1="526" y1="198.8" x2="528.9" y2="196.1"/>
					</g>
				</g>
				<path class="st35" d="M176.4,202.4c-9.2,0-17.8-3.6-24.3-10c-6.5-6.5-10.1-15.1-10.1-24.3c0-9.2,3.6-17.8,10.1-24.3
					c6.5-6.5,15.1-10,24.3-10c9.2,0,17.8,3.6,24.3,10.1c6.5,6.5,10.1,15.1,10.1,24.3c0,9.2-3.6,17.8-10.1,24.3
					C194.2,198.8,185.6,202.4,176.4,202.4z"/>
				<path class="st12" d="M188.6,168.1c0,6.7-5.5,12.2-12.2,12.2c-6.8,0-12.2-5.5-12.2-12.2c0-6.7,5.5-12.2,12.2-12.2
					C183.1,155.9,188.6,161.3,188.6,168.1z"/>
				<path class="st35" d="M549.6,202.4c-9.2,0-17.8-3.6-24.3-10c-13.4-13.4-13.4-35.2,0-48.6c6.5-6.5,15.1-10.1,24.3-10.1
					c9.2,0,17.8,3.6,24.3,10c6.5,6.5,10.1,15.1,10.1,24.3c0,9.2-3.6,17.8-10.1,24.3C567.3,198.8,558.7,202.4,549.6,202.4z"/>
				<path class="st12" d="M561.8,168.1c0,6.7-5.5,12.2-12.2,12.2c-6.7,0-12.2-5.5-12.2-12.2c0-6.7,5.5-12.2,12.2-12.2
					C556.3,155.9,561.8,161.3,561.8,168.1z"/>
				<path class="st12" d="M363,27.1c6.7,0,12.2,5.5,12.2,12.2c0,6.8-5.5,12.2-12.2,12.2c-6.7,0-12.2-5.4-12.2-12.2
					C350.8,32.6,356.2,27.1,363,27.1z"/>
				<path class="st35" d="M363,73.7c-18.9,0-34.3-15.4-34.3-34.3C328.7,20.4,344.1,5,363,5c9.2,0,17.8,3.6,24.3,10
					c6.5,6.5,10,15.1,10,24.3C397.3,58.3,381.9,73.7,363,73.7z"/>
				<path class="st35" d="M363,389c-18.9,0-34.3-15.4-34.3-34.3c0-18.9,15.4-34.3,34.3-34.3c9.2,0,17.8,3.6,24.3,10.1
					c6.5,6.5,10,15.1,10,24.3C397.3,373.6,381.9,389,363,389z"/>
				<g>
					<rect x="359.2" y="342.5" class="st12" width="7.6" height="24.4"/>
					<rect x="350.8" y="350.9" class="st12" width="24.4" height="7.6"/>
				</g>
			</g>
			<g>
				<g>
					<path class="st35" d="M508.7,266.9v122.3h142.8l27.8,27.8v-27.8h24.9V266.9H508.7z M591.6,345.2v-34.4l29.8,17.2L591.6,345.2z"
						/>
					<g>
						<polygon class="st35" points="621.3,328.1 591.6,345.2 591.6,310.9 						"/>
					</g>
				</g>
			</g>
			<path class="st35" d="M288.9,77c5.6,0,10.2,4.6,10.2,10.2c0,5.6-4.6,10.2-10.2,10.2c-5.6,0-10.2-4.5-10.2-10.2
				C278.7,81.5,283.3,77,288.9,77z"/>
			<path class="st35" d="M456.3,167.9c-11.1,0-20.1-9-20.1-20.1c0-11.1,9-20.1,20.1-20.1c11.1,0,20.1,9,20.1,20.1
				C476.4,158.8,467.3,167.9,456.3,167.9z"/>
			<g>
				<path class="st12" d="M114.9,419.8h-7.6c0-11.9-4.6-23-13-31.4c-8.4-8.4-19.5-13-31.4-13v-7.6c13.9,0,27,5.4,36.8,15.3
					C109.4,392.8,114.9,405.8,114.9,419.8z"/>
				<path class="st12" d="M96,419.8h-7.6c0-6.8-2.7-13.3-7.5-18.1c-4.8-4.8-11.3-7.5-18.1-7.5v-7.6c8.9,0,17.2,3.5,23.5,9.7
					C92.5,402.5,96,410.9,96,419.8z"/>
				<path class="st12" d="M62.8,434.1L62.8,434.1c-7.9,0-14.3-6.4-14.3-14.3c0-7.9,6.4-14.3,14.3-14.3c7.9,0,14.3,6.4,14.3,14.3
					C77.1,427.6,70.7,434.1,62.8,434.1z M62.8,413.1c-3.7,0-6.7,3-6.7,6.7c0,3.7,3,6.7,6.7,6.7c3.7,0,6.7-3,6.7-6.7
					C69.5,416.1,66.5,413.1,62.8,413.1z"/>
			</g>
			<path class="st12" d="M308.3,605.4l-0.1-7.6c1.9,0,3.6-0.6,5.1-1.7l4.5,6.1C315.1,604.2,311.8,605.3,308.3,605.4z M298.7,602.3
				c-2.8-2-4.9-4.9-6-8.1l7.2-2.4c0.6,1.7,1.7,3.3,3.2,4.4L298.7,602.3z M323.8,593.9l-7.3-2.3c0.3-0.9,0.4-1.8,0.4-2.7
				c0-0.9-0.1-1.9-0.4-2.7l7.2-2.4c0.5,1.7,0.8,3.4,0.8,5.1C324.6,590.7,324.3,592.3,323.8,593.9z M299.8,586.3l-7.3-2.3
				c1-3.3,3.1-6.2,5.9-8.3l4.6,6.1C301.5,583,300.4,584.6,299.8,586.3z M313.3,581.8c-1.5-1.1-3.3-1.7-5.2-1.7l-0.2-7.6h0.3
				c0,0,0,0,0,0c3.4,0,6.7,1.1,9.5,3.1L313.3,581.8z"/>
			<path class="st12" d="M405.8,605.6L405.8,605.6c-3.2,0-6.2-0.6-9.1-1.8l2.9-7c1.9,0.8,4,1.2,6.1,1.2L405.8,605.6z M414.8,603.7
				l-2.9-7c2-0.8,3.7-2,5.2-3.5l5.4,5.4C420.3,600.8,417.7,602.5,414.8,603.7z M389,598.6c-2.2-2.2-4-4.8-5.2-7.7l7-2.9
				c0.8,2,2,3.7,3.5,5.2L389,598.6z M427.7,590.9l-7-2.9c0.8-1.9,1.2-3.9,1.2-5.9v-0.2h3.8l3.7-1l0.1,0.5v0.5
				C429.5,584.9,428.9,588,427.7,590.9z M382,581.9L382,581.9c0-3.2,0.6-6.2,1.8-9.1l7.1,2.9c-0.8,1.9-1.2,4-1.2,6.1L382,581.9z
				 M420.6,575.6c-0.8-2-2-3.7-3.5-5.2l5.4-5.4c2.2,2.2,4,4.8,5.2,7.7L420.6,575.6z M394.3,570.4l-5.4-5.4c2.2-2.2,4.8-4,7.7-5.2
				l2.9,7C397.5,567.7,395.8,568.9,394.3,570.4z M411.9,566.9c-2-0.8-4-1.2-6.2-1.2l-0.1-7.6h0.1c3.1,0,6.2,0.6,9.1,1.8L411.9,566.9
				z"/>
			<path class="st12" d="M313.4,649.6c-7.3,0-13.2-5.9-13.2-13.2c0-7.3,5.9-13.3,13.2-13.3c7.3,0,13.3,5.9,13.3,13.3
				C326.7,643.7,320.8,649.6,313.4,649.6z"/>
			<g>
				<rect x="173.3" y="324.3" class="st12" width="36.3" height="7.6"/>
				<rect x="173.3" y="278.6" class="st12" width="36.3" height="7.6"/>
				<rect x="191.4" y="301.4" class="st12" width="36.3" height="7.6"/>
			</g>
			<g>
				<g>
					<g>
						<g>
							<g>
								<path class="st35" d="M127.8,345H10.5v-79.5h117.3V345z"/>
							</g>
						</g>
						<g>
							<polyline class="st35" points="127.8,265.5 69.2,318.8 10.5,265.5 							"/>
						</g>
						<g>
							<line class="st35" x1="10.5" y1="345" x2="56.6" y2="307.4"/>
						</g>
						<g>
							<line class="st35" x1="127.8" y1="345" x2="81.6" y2="307.4"/>
						</g>
					</g>
				</g>
			</g>
			<g>
				<rect x="359.2" y="435.2" class="st12" width="7.6" height="7.6"/>
				<rect x="374.4" y="435.2" class="st12" width="7.6" height="7.6"/>
				<rect x="343.9" y="435.2" class="st12" width="7.6" height="7.6"/>
			</g>
			<g>
				<g>
					<path class="st38" d="M388.3,716l-43.8-104.4L449,655.3l-43.8,16.8L388.3,716z"/>
					<line class="st38" x1="404.9" y1="672.2" x2="432.5" y2="699.7"/>
				</g>
			</g>
			<g>
				<path class="st35" d="M594.8,459.5v115.7h115.7V459.5H594.8z M687.9,525.2c0,3.1-1.2,6.1-3.4,8.3c-2.2,2.2-5.1,3.4-8.3,3.4
					c-3.1,0-6.1-1.2-8.3-3.4c-0.7-0.7-1.2-1.4-1.7-2.1c-3.5,3.4-8.3,5.6-13.7,5.6c-10.8,0-19.5-8.8-19.5-19.6
					c0-10.8,8.8-19.6,19.5-19.6c10.8,0,19.6,8.8,19.6,19.6v7.9c0,0.8,0.2,1.9,1.2,2.8c1.6,1.6,4.3,1.5,5.7,0
					c0.8-0.8,1.2-1.8,1.2-2.9v-7.9c0-15.3-12.4-27.7-27.7-27.7c-15.2,0-27.6,12.4-27.6,27.7c0,15.2,12.4,27.7,27.6,27.7
					c4.9,0,9.7-1.3,13.8-3.7c1.8-1.1,4.2-0.4,5.2,1.4c1.1,1.8,0.4,4.1-1.4,5.2c-5.3,3.1-11.4,4.7-17.7,4.7
					c-19.5,0-35.3-15.8-35.3-35.3c0-0.9,0-1.9,0.1-2.8c0.4-4.6,1.6-8.9,3.6-12.9c5.8-11.6,17.8-19.6,31.6-19.6
					c19.5,0,35.3,15.8,35.3,35.3V525.2z"/>
				<path class="st35" d="M687.9,517.3v7.9c0,3.1-1.2,6.1-3.4,8.3c-2.2,2.2-5.1,3.4-8.3,3.4c-3.1,0-6.1-1.2-8.3-3.4
					c-0.7-0.7-1.2-1.4-1.7-2.1c-3.5,3.4-8.3,5.6-13.7,5.6c-10.8,0-19.5-8.8-19.5-19.6c0-10.8,8.8-19.6,19.5-19.6
					c10.8,0,19.6,8.8,19.6,19.6v7.9c0,0.8,0.2,1.9,1.2,2.8c1.6,1.6,4.3,1.5,5.7,0c0.8-0.8,1.2-1.8,1.2-2.9v-7.9
					c0-15.3-12.4-27.7-27.7-27.7c-15.2,0-27.6,12.4-27.6,27.7c0,15.2,12.4,27.7,27.6,27.7c4.9,0,9.7-1.3,13.8-3.7
					c1.8-1.1,4.2-0.4,5.2,1.4c1.1,1.8,0.4,4.1-1.4,5.2c-5.3,3.1-11.4,4.7-17.7,4.7c-19.5,0-35.3-15.8-35.3-35.3c0-0.9,0-1.9,0.1-2.8
					c0.4-4.6,1.6-8.9,3.6-12.9c5.8-11.6,17.8-19.6,31.6-19.6C672.1,482,687.9,497.8,687.9,517.3z"/>
				<g>
					<path class="st12" d="M687.9,517.3c0,2.1-1.7,3.8-3.8,3.8c-2.1,0-3.8-1.7-3.8-3.8c0-15.3-12.4-27.7-27.7-27.7
						c-15.2,0-27.6,12.4-27.6,27.7c0,15.2,12.4,27.7,27.6,27.7c4.9,0,9.7-1.3,13.8-3.7c1.8-1.1,4.2-0.4,5.2,1.4
						c1.1,1.8,0.4,4.1-1.4,5.2c-5.3,3.1-11.4,4.7-17.7,4.7c-19.5,0-35.3-15.8-35.3-35.3c0-0.9,0-1.9,0.1-2.8
						c0.4-4.6,1.6-8.9,3.6-12.9c5.8-11.6,17.8-19.6,31.6-19.6C672.1,482,687.9,497.8,687.9,517.3z"/>
					<path class="st12" d="M652.6,497.8c-10.8,0-19.5,8.8-19.5,19.6c0,10.8,8.8,19.6,19.5,19.6c5.3,0,10.1-2.1,13.7-5.6
						c3.6-3.6,5.9-8.5,5.9-14C672.2,506.5,663.4,497.8,652.6,497.8z M652.6,529.2c-6.6,0-11.9-5.4-11.9-11.9
						c0-6.6,5.3-11.9,11.9-11.9c6.6,0,11.9,5.4,11.9,11.9C664.6,523.9,659.2,529.2,652.6,529.2z"/>
					<path class="st12" d="M687.9,517.3v7.9c0,3.1-1.2,6.1-3.4,8.3c-2.2,2.2-5.1,3.4-8.3,3.4c-3.1,0-6.1-1.2-8.3-3.4
						c-0.7-0.7-1.2-1.4-1.7-2.1c-1.1-1.8-1.7-3.9-1.7-6.1v-7.9c0-2.1,1.7-3.8,3.8-3.8c2.1,0,3.8,1.7,3.8,3.8v7.9
						c0,0.8,0.2,1.9,1.2,2.8c1.6,1.6,4.3,1.5,5.7,0c0.8-0.8,1.2-1.8,1.2-2.9v-7.9c0-2.1,1.7-3.8,3.8-3.8
						C686.2,513.5,687.9,515.2,687.9,517.3z"/>
				</g>
			</g>
			<g>
				<path class="st35" d="M48.2,505.7V617h166.1V505.7H48.2z M107.6,565.7c-8.6,0-15.5-6.9-15.5-15.5c0-8.5,7-15.5,15.5-15.5
					c8.5,0,15.4,6.9,15.4,15.5C123.1,558.7,116.2,565.7,107.6,565.7z"/>
				<path class="st35" d="M123.1,550.2c0,8.5-6.9,15.5-15.4,15.5c-8.6,0-15.5-6.9-15.5-15.5c0-8.5,7-15.5,15.5-15.5
					C116.2,534.7,123.1,541.7,123.1,550.2z"/>
				<g>
					<polyline class="st35" points="81.9,616.9 140.3,558.5 198.7,616.9 					"/>
					<polyline class="st35" points="56.9,616.9 98.3,575.5 111.2,588.5 					"/>
					<path class="st12" d="M107.6,534.7c-8.6,0-15.5,6.9-15.5,15.5c0,8.5,7,15.5,15.5,15.5c8.5,0,15.4-6.9,15.4-15.5
						C123.1,541.7,116.2,534.7,107.6,534.7z"/>
				</g>
				<polyline class="st39" points="33.4,524.3 33.4,631.8 195.6,631.8 				"/>
			</g>
			<g>
				<rect x="533.4" y="588.1" class="st12" width="111.2" height="7.6"/>
				<rect x="533.4" y="604.9" class="st12" width="111.2" height="7.6"/>
				<rect x="533.4" y="621.7" class="st12" width="67.2" height="7.6"/>
				<rect x="504.1" y="571.3" class="st12" width="73.4" height="7.6"/>
			</g>
		</g>
	</g>
	<polygon class="st12" points="621.3,328.1 591.6,345.2 591.6,310.9 	"/>
</g>
</svg>
