<svg id="Layer_1" data-name="Layer 1" xmlns="http://www.w3.org/2000/svg" viewBox="0 0 721 721"><defs><style>.cls-1{fill:#fff;}</style></defs><title>icons lineart</title><path class="cls-1" d="M291.22,333.91a34.06,34.06,0,0,1,.3,4.13c0,4.11,0,8.21,0,12.31,0,7-.05,14.19.08,21.23.24,13.88,10.71,24.54,24.35,24.81,14.58.29,29.73.29,45,0a24.62,24.62,0,0,0,24.44-24.69c.24-14.68.24-29.62,0-44.38-.22-13.92-11-24.55-25.06-24.73-11.35-.14-22.92-.1-34.11-.06l-9.73,0c-7.29,0-13.35,2.89-19.63,9.3l-7,7.14,1.25,14C291.15,333.28,291.18,333.58,291.22,333.91Zm6.37-5.88c.33-11.64,8-19.26,19.47-19.42,13.92-.18,28.32-.18,42.8,0,11.72.15,19.4,7.79,19.56,19.46.19,13.93.19,28.33,0,42.8-.15,11.71-7.8,19.39-19.47,19.55-7,.09-14.16.14-21.35.14s-14.28,0-21.46-.14c-11.55-.15-19.22-7.75-19.55-19.35-.14-5.23-.11-10.48-.07-15.56,0-2.21,0-4.43,0-6.65l0-6.18C297.48,337.9,297.45,333,297.59,328Z"/><path class="cls-1" d="M682.28,655.24c.05-214,.05-406.76,0-589.39,0-28.86-20.23-49-49.18-49-100.13-.05-206.44-.05-325,0-29.58,0-49.49,19.86-49.54,49.39-.05,23,0,46.5,0,69.17q0,15.21,0,30.42v39.79l-5.84,1.64-11.25,3.18c-8.28,2.34-16.1,4.56-24.14,6.73-33,8.89-53.62,27.69-63.14,57.46-1.46,4.56-2.55,9.27-3.7,14.26-.55,2.37-1.1,4.74-1.69,7.11L147.29,302H121.63V291.58c0-1.51,0-2.86,0-4.21,0-4.94-.85-6-.86-6s-1-.81-6-.82H112.1c-22.3,0-45.35,0-68,0-5.34,0-5.35,1-5.35,4.72,0,72,0,144.8,0,216.37,0,4.08.58,4.65,4.74,4.66,24.66.1,49.38.1,73.45,0,3.86,0,4.62-.4,4.7-4.85s0-9.05,0-13.47c0-2,0-4,0-6v-7.14l7.09-.81c6.55-.74,10.88-1.24,15,.85,4.44,2.24,6.24,6.15,8.72,11.55l.38.82a85.7,85.7,0,0,0,9.41,16.19c11.59,15.18,28.42,25.14,51.46,30.45,8.33,1.93,16.8,3.17,25.76,4.48,4,.59,8.21,1.2,12.39,1.88l6.71,1.1v14.25q0,15.18-.05,30.37c-.07,23.34-.14,47.48.17,71.19.26,19.93,9.41,34,28,42.92a63.08,63.08,0,0,0,8.47,3c1.13.34,2.29.7,3.46,1.08h343a12.06,12.06,0,0,1,2.51-.92C668.37,697.49,682.28,680,682.28,655.24ZM115.15,500.11H45.05V286.89h70.1Zm187-477.22c1.68-.13,3.3-.13,4.73-.12h65.82q130.25,0,260.47,0c24.63,0,41.87,16.33,42.9,40.62l.35,8.34H636.64q-26.64,0-53.28,0c-5.62,0-5.65.31-6,5.38-1.16,16.18-13.05,27.5-28.92,27.53-25.65,0-51.68.08-77.9.08-25.89,0-52,0-78-.08-15.9,0-27.81-11.33-29-27.48-.37-5.11-.39-5.42-6-5.43q-27.42,0-54.82,0H265.79l-.54-7.42C263.73,43.58,280.65,24.61,302.18,22.89ZM204,379.14v5.94c14.59-1,28.31-6,41.72-15.13l12.51-8.54V533.62l-8.5-.53c-23.92-1.49-49-5.06-70.62-21-14.51-10.72-22.74-24.51-24.46-41-.31-3-.91-3.55-4-3.63-4.58-.12-9.14-.09-14-.06l-6.6,0h-8V308.54h13.73c4.29,0,8.64,0,13,0,5,0,5.16,0,6.3-6.33,2-11.27,4.63-24.31,9.56-36.48a64.71,64.71,0,0,1,44.08-39.09c32.33-8.68,65.51-16.8,101.45-24.84,14.53-3.25,29.38-5.63,43.74-7.92,5.95-1,12.11-1.94,18.13-3a49.68,49.68,0,0,1,5.5-.54l2.53-.17,10.23-.84-1.69,10.12c-5.79,34.77-24.06,54-57.48,60.52-15.19,3-30.62,6.15-45.55,9.23-4.76,1-4.76,1-5.05,6.22-1.18,21.58-5.6,40.34-13.52,57.35C253.87,360.89,232.69,376.46,204,379.14Zm60.41-5.65c-.07-15.28.85-31.34,12.76-45l3.51-4,2.61-19.24c.31-2.24.57-4.38.83-6.43.67-5.4,1.31-10.49,2.39-15.55,1.25-5.86,7.45-9.33,11.07-10.14,11.21-2.52,23.18-5.14,35.39-7.17,32.48-5.39,52.42-25.29,60.95-60.81a100.05,100.05,0,0,0,2.46-18.86c.11-2.33-.39-3.63-.85-4s-1.82-.74-4.11-.34c-27,4.66-54.48,9.52-81,14.21l-29.73,5.26-4.09.73-11.66,2.07v-126h91.76l1.72,5.69c4.46,14.84,13.37,23.42,27.22,26.25a48.75,48.75,0,0,0,9.32.61c15.23,0,30.73,0,45.71-.07,32.78-.09,66.67-.19,100,.33,23.31.35,35.9-7.83,42.07-27.4l1.76-5.6h91.35v553.9H264.55V615.2q0-30.81,0-61.62C264.61,494.55,264.65,433.51,264.36,373.49ZM631.2,698.25H310.57c-15.54,0-28-4.84-36-14-8.17-9.33-11.38-22.73-9.26-38.73l.92-7H674.26l1.14,6.66c2.61,15.31-.35,28.55-8.57,38.3S646.38,698.25,631.2,698.25Z"/><polygon class="cls-1" points="190.69 165.73 159.57 134.65 156.77 137.18 187.79 168.3 190.69 165.73"/><rect class="cls-1" x="215.03" y="105.11" width="5.22" height="38.04"/><rect class="cls-1" x="127.19" y="193.12" width="38.1" height="5.14"/><path class="cls-1" d="M423.46,224.62c0,5.06-.07,10.3.05,15.39a24.82,24.82,0,0,0,24.05,24.46c14.72.34,30.07.34,45.64,0a24.43,24.43,0,0,0,24.08-23.68c.38-15,.39-30.57,0-46.27a24.41,24.41,0,0,0-24-23.78c-7.49-.16-15.1-.24-22.78-.24s-15.22.08-22.88.24a24.81,24.81,0,0,0-24.14,24.37c-.13,5-.1,10.24-.07,15.27,0,2.39,0,4.78,0,7.17h0C423.49,219.91,423.47,222.26,423.46,224.62Zm6-28c.14-12.15,7.73-19.79,19.83-19.93,13.54-.16,27.7-.16,42.08,0,12.16.13,19.8,7.72,19.95,19.81.16,13.56.16,27.72,0,42.09-.13,12-7.69,19.64-19.72,19.94-2.84.07-5.69.1-8.5.1-2.2,0-4.39,0-6.54,0-4.22,0-8.44,0-12.66,0-4.76,0-9.7.06-14.6-.06-12.09-.29-19.69-7.89-19.83-19.84C429.35,225.09,429.35,210.93,429.5,196.63Z"/><path class="cls-1" d="M555.45,195.43c-.23,14.75-.23,29.68,0,44.37.22,14.06,10.77,24.47,25.09,24.75,4.78.09,9.68.06,14.43,0l6.7,0,7.12,0c5.06,0,10.29.05,15.39,0,14.3-.27,24.85-10.68,25.08-24.75.24-14.69.24-29.61,0-44.36-.22-13.91-11-24.54-25-24.73-14.52-.18-29.23-.18-43.74,0C566.43,170.89,555.66,181.51,555.45,195.43ZM581,176.71c14.4-.18,28.8-.18,42.8,0,11.68.15,19.33,7.82,19.48,19.54.19,14.4.18,28.8,0,42.79-.15,11.51-7.78,19.15-19.43,19.48-5.07.15-10.15.11-15.07.08q-3.22,0-6.45,0h-.09q-3.19,0-6.39,0c-2.13,0-4.3,0-6.48,0-2.84,0-5.71,0-8.57-.11-11.6-.35-19.19-8-19.33-19.56-.19-14.47-.19-28.87,0-42.8C561.61,184.5,569.28,176.86,581,176.71Z"/><path class="cls-1" d="M517.37,371.33c.09-4.93.07-10,0-14.91q0-3.45,0-6.9t0-6.9c0-4.91.05-10,0-14.91-.27-14.4-10.95-25-25.39-25.12-7.12-.07-14.32-.11-21.52-.11s-14.39,0-21.56.11c-14.52.16-25.2,10.69-25.39,25.05s-.19,29.11,0,43.72c.19,14.05,10.82,24.82,24.73,25.05,14.68.25,29.61.24,44.37,0C506.68,396.18,517.09,385.64,517.37,371.33ZM470,390.55c-7,0-13.79,0-20.43-.11-12.47-.13-20-7.76-20.09-20.41-.13-15-.13-28.54,0-41.37.14-12.46,7.76-20,20.4-20.08,14.94-.13,28.48-.13,41.38,0,12.35.13,19.87,7.73,20.1,20.32.09,4.85.07,9.74.05,14.47,0,2.09,0,4.19,0,6.28s0,4,0,6c0,4.58,0,9.32,0,14-.19,13.07-7.64,20.63-20.43,20.75C483.7,390.52,476.74,390.55,470,390.55Z"/><path class="cls-1" d="M625.61,302.68c-14.73-.38-30.3-.39-46.29,0a24.39,24.39,0,0,0-23.83,23.92c-.32,14.59-.32,29.95,0,45.65a24.85,24.85,0,0,0,24.33,24.19c5.1.14,10.36.1,15.45.06q3.48,0,7,0h.3c2.39,0,4.79,0,7.19,0,5.14,0,10.45.09,15.57-.09a24.68,24.68,0,0,0,23.92-24c.38-16.81.37-31.95,0-46.27A24.48,24.48,0,0,0,625.61,302.68Zm17.74,40.88c0,2.22,0,4.43,0,6.64h0c0,2.09,0,4.18,0,6.27,0,4.75.07,9.67-.07,14.58-.35,11.61-8,19.22-19.53,19.37-7.11.1-14.26.14-21.4.14s-14.31,0-21.4-.14c-11.7-.16-19.35-7.82-19.5-19.52-.19-14.27-.19-28.67,0-42.79.15-11.69,7.81-19.34,19.5-19.5,14.17-.18,28.57-.18,42.81,0,11.52.15,19.19,7.76,19.52,19.39C643.42,333.23,643.39,338.48,643.35,343.56Z"/><rect class="cls-1" x="346.85" y="588.83" width="291.19" height="5.12"/><rect class="cls-1" x="302.95" y="588.69" width="5.05" height="5.38"/><rect class="cls-1" x="318.77" y="588.69" width="14.74" height="5.38"/><rect class="cls-1" x="435.01" y="61.22" width="71.08" height="5.16"/></svg>