<?xml version="1.0" encoding="utf-8"?>
<!-- Generator: Adobe Illustrator 26.0.1, SVG Export Plug-In . SVG Version: 6.00 Build 0)  -->
<svg version="1.1" id="Layer_1" xmlns="http://www.w3.org/2000/svg" xmlns:xlink="http://www.w3.org/1999/xlink" x="0px" y="0px"
	 viewBox="0 0 721 721" style="enable-background:new 0 0 721 721;" xml:space="preserve">
<style type="text/css">
	.st0{fill:url(#SVGID_1_);}
	.st1{fill:#55CA8F;stroke:#FFFFFF;stroke-miterlimit:10;}
	.st2{fill:none;stroke:#FFFFFF;stroke-width:0.25;}
	.st3{fill:#FFFFFF;}
	.st4{fill:#A06733;}
	.st5{fill:#F0C88A;}
	.st6{fill:#63C3B2;}
	
		.st7{fill-rule:evenodd;clip-rule:evenodd;fill:#FFFFFF;stroke:url(#SVGID_00000064340861558900583970000000527708169986616457_);stroke-width:0.75;stroke-miterlimit:10;}
	.st8{fill:none;}
	.st9{fill:url(#SVGID_00000000209904198699386790000017483096713553623474_);}
	.st10{fill:url(#SVGID_00000046306886035377303520000008081441085937498773_);}
	
		.st11{fill-rule:evenodd;clip-rule:evenodd;fill:none;stroke:url(#SVGID_00000052805951811380396530000017811090709004619171_);stroke-width:0.75;stroke-miterlimit:10;}
	.st12{fill:#C33B3B;}
	.st13{fill:none;stroke:#C6D6D7;stroke-width:0.25;}
	.st14{filter:url(#Adobe_OpacityMaskFilter);}
	.st15{fill:#020202;}
	.st16{mask:url(#SVGID_00000047781182165622126090000013805704594248895650_);}
	.st17{filter:url(#Adobe_OpacityMaskFilter_00000000930879676474563110000009648712036897411483_);}
	.st18{fill:none;stroke:#FFFFFF;stroke-width:1.348;}
	.st19{fill:none;stroke:#FFFFFF;stroke-width:1.331;}
	.st20{fill:none;stroke:#FFFFFF;stroke-width:1.331;stroke-dasharray:8.1253,8.1253;}
	.st21{fill:none;stroke:#FFFFFF;stroke-width:1.331;stroke-dasharray:8.1405,8.1405;}
	.st22{fill:none;stroke:#FFFFFF;stroke-width:4.937;}
	.st23{fill:none;stroke:#FFFFFF;stroke-width:0.9874;stroke-miterlimit:10;}
	.st24{fill:none;stroke:#FFFFFF;stroke-width:4.5457;stroke-miterlimit:10;}
	.st25{fill:none;stroke:#FFFFFF;stroke-width:3.7361;stroke-miterlimit:10;}
	.st26{fill:none;stroke:#FFFFFF;stroke-width:1.1549;}
	.st27{fill-rule:evenodd;clip-rule:evenodd;fill:#FFFFFF;}
</style>
<g>
	<g>
		<g>
			<path class="st25" d="M715.5,121.6v313.2c0,6-5,10.8-11.2,10.8H581.3V263.3c0-7.7-6.3-14-14-14H325.4V121.6c0-6,5-10.8,11.1-10.8
				h367.8C710.5,110.7,715.5,115.6,715.5,121.6z"/>
		</g>
		<g>
			<path class="st25" d="M708,155.3V425c0,5.2-4.8,9.3-10.7,9.3h-116V263.3c0-7.7-6.3-14-14-14H332.7v-93.9c0-5.2,4.8-9.3,10.7-9.3
				h353.9C703.2,146,708,150.2,708,155.3z"/>
		</g>
		<g>
			<path class="st25" d="M708.1,155.2v10.8h-339v-20.1h328.3C703.3,145.8,708.1,150,708.1,155.2z"/>
		</g>
		<g>
			<g>
				<path class="st26" d="M705.1,136.1c0,0.9-1.1,1.7-2.5,1.7h-28.1c-1.4,0-2.5-0.8-2.5-1.7v-19.4c0-0.9,1.1-1.7,2.5-1.7h28.1
					c1.4,0,2.5,0.8,2.5,1.7V136.1z"/>
			</g>
			<g>
				<path class="st26" d="M670,136.1c0,0.9-0.8,1.7-1.7,1.7h-19.7c-1,0-1.7-0.8-1.7-1.7v-19.4c0-0.9,0.8-1.7,1.7-1.7h19.7
					c1,0,1.7,0.8,1.7,1.7V136.1z"/>
			</g>
			<g>
				<path class="st26" d="M645.3,136.1c0,0.9-0.8,1.7-1.7,1.7h-19.7c-1,0-1.7-0.8-1.7-1.7v-19.4c0-0.9,0.8-1.7,1.7-1.7h19.7
					c1,0,1.7,0.8,1.7,1.7V136.1z"/>
			</g>
			<g>
				<g>
					<g>
						<polygon class="st3" points="696.3,130.7 685.7,121.2 682.5,121.2 682.4,121.3 693,130.7 						"/>
					</g>
				</g>
				<g>
					<g>
						<polygon class="st3" points="686.3,130.7 696.8,121.3 696.7,121.2 693.5,121.2 682.9,130.7 						"/>
					</g>
				</g>
			</g>
			<g>
				<rect x="628.2" y="124.4" class="st3" width="11.4" height="3.5"/>
			</g>
			<g>
				<path class="st3" d="M651.9,120.7v9.8h13.4v-9.8H651.9z M654.2,128.2V123h8.7v5.1H654.2z"/>
			</g>
		</g>
		<g>
			<path class="st25" d="M369.1,144.9v104.4"/>
		</g>
		<g>
			<path class="st26" d="M362.3,175.3c0,0.9-0.8,1.7-1.7,1.7h-19.7c-1,0-1.7-0.8-1.7-1.7V156c0-0.9,0.8-1.7,1.7-1.7h19.7
				c1,0,1.7,0.8,1.7,1.7V175.3z"/>
		</g>
		<g>
			<path class="st26" d="M362.3,206c0,0.9-0.8,1.7-1.7,1.7h-19.7c-1,0-1.7-0.8-1.7-1.7v-19.4c0-0.9,0.8-1.7,1.7-1.7h19.7
				c1,0,1.7,0.8,1.7,1.7V206z"/>
		</g>
		<g>
			<path class="st26" d="M362.3,236.7c0,0.9-0.8,1.7-1.7,1.7h-19.7c-1,0-1.7-0.8-1.7-1.7v-19.4c0-0.9,0.8-1.7,1.7-1.7h19.7
				c1,0,1.7,0.8,1.7,1.7V236.7z"/>
		</g>
		<g>
			<path class="st26" d="M362.3,248.1v1.2h-23.2v-1.2c0-0.9,0.8-1.7,1.7-1.7h19.7C361.5,246.4,362.3,247.1,362.3,248.1z"/>
		</g>
		<g>
			<path class="st3" d="M378.3,152.2h5.6v1.5h-3.1v2.3h2.9v1.4h-2.9v3.6h-2.5V152.2z"/>
			<path class="st3" d="M388.3,152.2v8.8h-2.5v-8.8H388.3z"/>
			<path class="st3" d="M390.6,152.2h2.5v7.3h3.3v1.4h-5.8V152.2z"/>
			<path class="st3" d="M403.3,157.1h-2.9v2.4h3.3v1.5h-5.8v-8.8h5.6v1.5h-3.1v2h2.9V157.1z"/>
		</g>
		<g>
			<path class="st26" d="M426.2,161.6c0,0.5-0.5,0.8-1.2,0.8h-14c-0.7,0-1.2-0.4-1.2-0.8V152c0-0.5,0.5-0.8,1.2-0.8h14
				c0.7,0,1.2,0.4,1.2,0.8V161.6z"/>
		</g>
		<g>
			<g>
				<g>
					<polygon class="st3" points="421.9,158.9 416.6,154.2 415,154.2 415,154.3 420.2,158.9 					"/>
				</g>
			</g>
			<g>
				<g>
					<polygon class="st3" points="416.9,158.9 422.1,154.3 422.1,154.2 420.5,154.2 415.2,158.9 					"/>
				</g>
			</g>
		</g>
	</g>
	<g>
		<path class="st3" d="M341.3,341.7h1.7v7.5c0,1.3-0.1,2.3-0.4,3.1c-0.3,0.8-0.8,1.4-1.6,1.9c-0.8,0.5-1.8,0.7-3,0.7
			c-1.2,0-2.2-0.2-3-0.6c-0.8-0.4-1.3-1-1.6-1.8c-0.3-0.8-0.5-1.9-0.5-3.2v-7.5h1.7v7.5c0,1.1,0.1,2,0.3,2.5
			c0.2,0.5,0.6,0.9,1.1,1.2c0.5,0.3,1.1,0.4,1.9,0.4c1.3,0,2.2-0.3,2.7-0.9c0.5-0.6,0.8-1.7,0.8-3.3V341.7z"/>
		<path class="st3" d="M346.5,351.8l1.6-0.2c0.1,0.6,0.3,1.1,0.7,1.4c0.4,0.3,1,0.5,1.7,0.5c0.7,0,1.3-0.1,1.6-0.4
			c0.4-0.3,0.5-0.6,0.5-1c0-0.4-0.2-0.6-0.5-0.8c-0.2-0.1-0.8-0.3-1.6-0.5c-1.2-0.3-2-0.5-2.4-0.8c-0.5-0.2-0.8-0.5-1-0.9
			c-0.2-0.4-0.3-0.8-0.3-1.3c0-0.4,0.1-0.8,0.3-1.2c0.2-0.4,0.5-0.7,0.8-0.9c0.2-0.2,0.6-0.3,1-0.5c0.4-0.1,0.9-0.2,1.4-0.2
			c0.7,0,1.4,0.1,1.9,0.3s1,0.5,1.2,0.9c0.3,0.4,0.4,0.8,0.5,1.5l-1.6,0.2c-0.1-0.5-0.3-0.9-0.6-1.1c-0.3-0.3-0.8-0.4-1.4-0.4
			c-0.7,0-1.3,0.1-1.6,0.4c-0.3,0.2-0.5,0.5-0.5,0.8c0,0.2,0.1,0.4,0.2,0.6c0.1,0.2,0.3,0.3,0.6,0.4c0.2,0.1,0.6,0.2,1.4,0.4
			c1.1,0.3,1.9,0.5,2.4,0.7c0.4,0.2,0.8,0.5,1,0.8c0.3,0.4,0.4,0.8,0.4,1.4c0,0.5-0.2,1-0.5,1.5c-0.3,0.5-0.8,0.8-1.3,1.1
			c-0.6,0.3-1.2,0.4-2,0.4c-1.2,0-2.1-0.3-2.8-0.8C347,353.6,346.6,352.8,346.5,351.8z"/>
		<path class="st3" d="M364,351.6l1.6,0.2c-0.3,1-0.7,1.7-1.4,2.2c-0.7,0.5-1.6,0.8-2.7,0.8c-1.4,0-2.5-0.4-3.3-1.3
			c-0.8-0.8-1.2-2-1.2-3.6c0-1.6,0.4-2.8,1.2-3.7c0.8-0.9,1.9-1.3,3.2-1.3c1.3,0,2.3,0.4,3.1,1.3c0.8,0.9,1.2,2.1,1.2,3.6
			c0,0.1,0,0.2,0,0.4h-7c0.1,1,0.3,1.8,0.9,2.4c0.5,0.5,1.2,0.8,2,0.8c0.6,0,1.1-0.2,1.5-0.5C363.4,352.8,363.7,352.3,364,351.6z
			 M358.8,349.1h5.2c-0.1-0.8-0.3-1.4-0.6-1.8c-0.5-0.6-1.2-0.9-2-0.9c-0.7,0-1.3,0.2-1.8,0.7C359.1,347.6,358.8,348.2,358.8,349.1z
			"/>
		<path class="st3" d="M369,354.6v-9.4h1.4v1.4c0.4-0.7,0.7-1.1,1-1.3c0.3-0.2,0.6-0.3,1-0.3c0.5,0,1.1,0.2,1.6,0.5l-0.5,1.5
			c-0.4-0.2-0.8-0.3-1.2-0.3c-0.3,0-0.7,0.1-0.9,0.3c-0.3,0.2-0.5,0.5-0.6,0.9c-0.2,0.6-0.3,1.2-0.3,1.9v4.9H369z"/>
		<path class="st3" d="M376.5,354.6v-9.4h1.4v1.3c0.7-1,1.7-1.5,3-1.5c0.6,0,1.1,0.1,1.6,0.3c0.5,0.2,0.8,0.5,1.1,0.8
			c0.2,0.3,0.4,0.7,0.5,1.2c0.1,0.3,0.1,0.8,0.1,1.5v5.8h-1.6v-5.7c0-0.6-0.1-1.1-0.2-1.5c-0.1-0.3-0.3-0.6-0.7-0.8
			c-0.3-0.2-0.7-0.3-1.1-0.3c-0.7,0-1.3,0.2-1.8,0.6c-0.5,0.4-0.7,1.2-0.7,2.4v5.1H376.5z"/>
		<path class="st3" d="M394.1,353.5c-0.6,0.5-1.2,0.9-1.7,1.1s-1.1,0.3-1.8,0.3c-1,0-1.8-0.3-2.4-0.8c-0.6-0.5-0.8-1.1-0.8-1.9
			c0-0.5,0.1-0.9,0.3-1.3c0.2-0.4,0.5-0.7,0.8-0.9c0.3-0.2,0.7-0.4,1.1-0.5c0.3-0.1,0.8-0.2,1.4-0.2c1.3-0.2,2.2-0.3,2.8-0.5
			c0-0.2,0-0.4,0-0.4c0-0.6-0.1-1.1-0.4-1.4c-0.4-0.4-1-0.5-1.8-0.5c-0.7,0-1.3,0.1-1.7,0.4c-0.4,0.3-0.6,0.7-0.8,1.4l-1.6-0.2
			c0.1-0.7,0.4-1.2,0.7-1.6c0.3-0.4,0.8-0.7,1.4-0.9c0.6-0.2,1.3-0.3,2.1-0.3c0.8,0,1.4,0.1,1.9,0.3c0.5,0.2,0.9,0.4,1.1,0.7
			c0.2,0.3,0.4,0.6,0.5,1.1c0.1,0.3,0.1,0.8,0.1,1.5v2.1c0,1.5,0,2.4,0.1,2.8c0.1,0.4,0.2,0.8,0.4,1.1h-1.7
			C394.3,354.3,394.2,353.9,394.1,353.5z M394,349.9c-0.6,0.2-1.4,0.4-2.6,0.6c-0.7,0.1-1.1,0.2-1.4,0.3c-0.3,0.1-0.5,0.3-0.6,0.5
			c-0.1,0.2-0.2,0.5-0.2,0.8c0,0.4,0.2,0.8,0.5,1.1c0.3,0.3,0.8,0.4,1.4,0.4c0.6,0,1.2-0.1,1.6-0.4c0.5-0.3,0.8-0.6,1-1.1
			c0.2-0.4,0.3-0.9,0.3-1.6V349.9z"/>
		<path class="st3" d="M399.5,354.6v-9.4h1.4v1.3c0.3-0.5,0.7-0.8,1.2-1.1c0.5-0.3,1-0.4,1.7-0.4c0.7,0,1.3,0.1,1.7,0.4
			c0.4,0.3,0.8,0.7,0.9,1.2c0.7-1.1,1.7-1.6,2.9-1.6c0.9,0,1.6,0.3,2.1,0.8c0.5,0.5,0.7,1.3,0.7,2.4v6.4h-1.6v-5.9
			c0-0.6-0.1-1.1-0.2-1.4c-0.1-0.3-0.3-0.5-0.6-0.7c-0.3-0.2-0.6-0.3-1-0.3c-0.7,0-1.2,0.2-1.6,0.7c-0.4,0.4-0.7,1.1-0.7,2.1v5.4
			h-1.6v-6.1c0-0.7-0.1-1.2-0.4-1.6c-0.3-0.4-0.7-0.5-1.3-0.5c-0.4,0-0.9,0.1-1.2,0.4c-0.4,0.2-0.7,0.6-0.8,1
			c-0.2,0.5-0.3,1.1-0.3,2v4.9H399.5z"/>
		<path class="st3" d="M422.4,351.6l1.6,0.2c-0.3,1-0.7,1.7-1.4,2.2c-0.7,0.5-1.6,0.8-2.7,0.8c-1.4,0-2.5-0.4-3.3-1.3
			c-0.8-0.8-1.2-2-1.2-3.6c0-1.6,0.4-2.8,1.2-3.7c0.8-0.9,1.9-1.3,3.2-1.3c1.3,0,2.3,0.4,3.1,1.3c0.8,0.9,1.2,2.1,1.2,3.6
			c0,0.1,0,0.2,0,0.4h-7c0.1,1,0.3,1.8,0.9,2.4c0.5,0.5,1.2,0.8,2,0.8c0.6,0,1.1-0.2,1.5-0.5C421.9,352.8,422.2,352.3,422.4,351.6z
			 M417.2,349.1h5.2c-0.1-0.8-0.3-1.4-0.6-1.8c-0.5-0.6-1.2-0.9-2-0.9c-0.7,0-1.3,0.2-1.8,0.7C417.5,347.6,417.3,348.2,417.2,349.1z
			"/>
	</g>
	<g>
		<g>
			<path class="st3" d="M303.1,402.7l0.4-1.3c0.9,0.3,1.6,0.6,2,0.9c-0.1-1.1-0.2-1.8-0.2-2.2h1.3c0,0.6-0.1,1.3-0.2,2.2
				c0.6-0.3,1.3-0.6,2.1-0.8l0.4,1.3c-0.7,0.2-1.5,0.4-2.2,0.5c0.4,0.3,0.9,0.9,1.5,1.7l-1.1,0.8c-0.3-0.5-0.7-1.1-1.2-1.9
				c-0.4,0.8-0.8,1.5-1.1,1.9l-1-0.8c0.7-0.8,1.2-1.4,1.5-1.7C304.5,403,303.8,402.8,303.1,402.7z"/>
			<path class="st3" d="M311.6,402.7l0.4-1.3c0.9,0.3,1.6,0.6,2,0.9c-0.1-1.1-0.2-1.8-0.2-2.2h1.3c0,0.6-0.1,1.3-0.2,2.2
				c0.6-0.3,1.3-0.6,2.1-0.8l0.4,1.3c-0.7,0.2-1.5,0.4-2.2,0.5c0.4,0.3,0.9,0.9,1.5,1.7l-1.1,0.8c-0.3-0.5-0.7-1.1-1.2-1.9
				c-0.4,0.8-0.8,1.5-1.1,1.9l-1-0.8c0.7-0.8,1.2-1.4,1.5-1.7C313,403,312.3,402.8,311.6,402.7z"/>
			<path class="st3" d="M320.1,402.7l0.4-1.3c0.9,0.3,1.6,0.6,2,0.9c-0.1-1.1-0.2-1.8-0.2-2.2h1.3c0,0.6-0.1,1.3-0.2,2.2
				c0.6-0.3,1.3-0.6,2.1-0.8l0.4,1.3c-0.7,0.2-1.5,0.4-2.2,0.5c0.4,0.3,0.9,0.9,1.5,1.7l-1.1,0.8c-0.3-0.5-0.7-1.1-1.2-1.9
				c-0.4,0.8-0.8,1.5-1.1,1.9l-1-0.8c0.7-0.8,1.2-1.4,1.5-1.7C321.5,403,320.8,402.8,320.1,402.7z"/>
			<path class="st3" d="M328.6,402.7l0.4-1.3c0.9,0.3,1.6,0.6,2,0.9c-0.1-1.1-0.2-1.8-0.2-2.2h1.3c0,0.6-0.1,1.3-0.2,2.2
				c0.6-0.3,1.3-0.6,2.1-0.8l0.4,1.3c-0.7,0.2-1.5,0.4-2.2,0.5c0.4,0.3,0.9,0.9,1.5,1.7l-1.1,0.8c-0.3-0.5-0.7-1.1-1.2-1.9
				c-0.4,0.8-0.8,1.5-1.1,1.9l-1-0.8c0.7-0.8,1.2-1.4,1.5-1.7C330,403,329.2,402.8,328.6,402.7z"/>
			<path class="st3" d="M337,402.7l0.4-1.3c0.9,0.3,1.6,0.6,2,0.9c-0.1-1.1-0.2-1.8-0.2-2.2h1.3c0,0.6-0.1,1.3-0.2,2.2
				c0.6-0.3,1.3-0.6,2.1-0.8l0.4,1.3c-0.7,0.2-1.5,0.4-2.2,0.5c0.4,0.3,0.9,0.9,1.5,1.7l-1.1,0.8c-0.3-0.5-0.7-1.1-1.2-1.9
				c-0.4,0.8-0.8,1.5-1.1,1.9l-1-0.8c0.7-0.8,1.2-1.4,1.5-1.7C338.4,403,337.7,402.8,337,402.7z"/>
			<path class="st3" d="M345.5,402.7l0.4-1.3c0.9,0.3,1.6,0.6,2,0.9c-0.1-1.1-0.2-1.8-0.2-2.2h1.3c0,0.6-0.1,1.3-0.2,2.2
				c0.6-0.3,1.3-0.6,2.1-0.8l0.4,1.3c-0.7,0.2-1.5,0.4-2.2,0.5c0.4,0.3,0.9,0.9,1.5,1.7l-1.1,0.8c-0.3-0.5-0.7-1.1-1.2-1.9
				c-0.4,0.8-0.8,1.5-1.1,1.9l-1-0.8c0.7-0.8,1.2-1.4,1.5-1.7C346.9,403,346.2,402.8,345.5,402.7z"/>
			<path class="st3" d="M354,402.7l0.4-1.3c0.9,0.3,1.6,0.6,2,0.9c-0.1-1.1-0.2-1.8-0.2-2.2h1.3c0,0.6-0.1,1.3-0.2,2.2
				c0.6-0.3,1.3-0.6,2.1-0.8l0.4,1.3c-0.7,0.2-1.5,0.4-2.2,0.5c0.4,0.3,0.9,0.9,1.5,1.7l-1.1,0.8c-0.3-0.5-0.7-1.1-1.2-1.9
				c-0.4,0.8-0.8,1.5-1.1,1.9l-1-0.8c0.7-0.8,1.2-1.4,1.5-1.7C355.4,403,354.7,402.8,354,402.7z"/>
			<path class="st3" d="M362.5,402.7l0.4-1.3c0.9,0.3,1.6,0.6,2,0.9c-0.1-1.1-0.2-1.8-0.2-2.2h1.3c0,0.6-0.1,1.3-0.2,2.2
				c0.6-0.3,1.3-0.6,2.1-0.8l0.4,1.3c-0.7,0.2-1.5,0.4-2.2,0.5c0.4,0.3,0.9,0.9,1.5,1.7l-1.1,0.8c-0.3-0.5-0.7-1.1-1.2-1.9
				c-0.4,0.8-0.8,1.5-1.1,1.9l-1-0.8c0.7-0.8,1.2-1.4,1.5-1.7C363.9,403,363.2,402.8,362.5,402.7z"/>
			<path class="st3" d="M370.9,402.7l0.4-1.3c0.9,0.3,1.6,0.6,2,0.9c-0.1-1.1-0.2-1.8-0.2-2.2h1.3c0,0.6-0.1,1.3-0.2,2.2
				c0.6-0.3,1.3-0.6,2.1-0.8l0.4,1.3c-0.7,0.2-1.5,0.4-2.2,0.5c0.4,0.3,0.9,0.9,1.5,1.7l-1.1,0.8c-0.3-0.5-0.7-1.1-1.2-1.9
				c-0.4,0.8-0.8,1.5-1.1,1.9l-1-0.8c0.7-0.8,1.2-1.4,1.5-1.7C372.4,403,371.6,402.8,370.9,402.7z"/>
			<path class="st3" d="M379.4,402.7l0.4-1.3c0.9,0.3,1.6,0.6,2,0.9c-0.1-1.1-0.2-1.8-0.2-2.2h1.3c0,0.6-0.1,1.3-0.2,2.2
				c0.6-0.3,1.3-0.6,2.1-0.8l0.4,1.3c-0.7,0.2-1.5,0.4-2.2,0.5c0.4,0.3,0.9,0.9,1.5,1.7l-1.1,0.8c-0.3-0.5-0.7-1.1-1.2-1.9
				c-0.4,0.8-0.8,1.5-1.1,1.9l-1-0.8c0.7-0.8,1.2-1.4,1.5-1.7C380.8,403,380.1,402.8,379.4,402.7z"/>
			<path class="st3" d="M387.9,402.7l0.4-1.3c0.9,0.3,1.6,0.6,2,0.9c-0.1-1.1-0.2-1.8-0.2-2.2h1.3c0,0.6-0.1,1.3-0.2,2.2
				c0.6-0.3,1.3-0.6,2.1-0.8l0.4,1.3c-0.7,0.2-1.5,0.4-2.2,0.5c0.4,0.3,0.9,0.9,1.5,1.7l-1.1,0.8c-0.3-0.5-0.7-1.1-1.2-1.9
				c-0.4,0.8-0.8,1.5-1.1,1.9l-1-0.8c0.7-0.8,1.2-1.4,1.5-1.7C389.3,403,388.6,402.8,387.9,402.7z"/>
			<path class="st3" d="M396.4,402.7l0.4-1.3c0.9,0.3,1.6,0.6,2,0.9c-0.1-1.1-0.2-1.8-0.2-2.2h1.3c0,0.6-0.1,1.3-0.2,2.2
				c0.6-0.3,1.3-0.6,2.1-0.8l0.4,1.3c-0.7,0.2-1.5,0.4-2.2,0.5c0.4,0.3,0.9,0.9,1.5,1.7l-1.1,0.8c-0.3-0.5-0.7-1.1-1.2-1.9
				c-0.4,0.8-0.8,1.5-1.1,1.9l-1-0.8c0.7-0.8,1.2-1.4,1.5-1.7C397.8,403,397.1,402.8,396.4,402.7z"/>
			<path class="st3" d="M404.9,402.7l0.4-1.3c0.9,0.3,1.6,0.6,2,0.9c-0.1-1.1-0.2-1.8-0.2-2.2h1.3c0,0.6-0.1,1.3-0.2,2.2
				c0.6-0.3,1.3-0.6,2.1-0.8l0.4,1.3c-0.7,0.2-1.5,0.4-2.2,0.5c0.4,0.3,0.9,0.9,1.5,1.7l-1.1,0.8c-0.3-0.5-0.7-1.1-1.2-1.9
				c-0.4,0.8-0.8,1.5-1.1,1.9l-1-0.8c0.7-0.8,1.2-1.4,1.5-1.7C406.3,403,405.5,402.8,404.9,402.7z"/>
			<path class="st3" d="M413.3,402.7l0.4-1.3c0.9,0.3,1.6,0.6,2,0.9c-0.1-1.1-0.2-1.8-0.2-2.2h1.3c0,0.6-0.1,1.3-0.2,2.2
				c0.6-0.3,1.3-0.6,2.1-0.8l0.4,1.3c-0.7,0.2-1.5,0.4-2.2,0.5c0.4,0.3,0.9,0.9,1.5,1.7l-1.1,0.8c-0.3-0.5-0.7-1.1-1.2-1.9
				c-0.4,0.8-0.8,1.5-1.1,1.9l-1-0.8c0.7-0.8,1.2-1.4,1.5-1.7C414.7,403,414,402.8,413.3,402.7z"/>
			<path class="st3" d="M421.8,402.7l0.4-1.3c0.9,0.3,1.6,0.6,2,0.9c-0.1-1.1-0.2-1.8-0.2-2.2h1.3c0,0.6-0.1,1.3-0.2,2.2
				c0.6-0.3,1.3-0.6,2.1-0.8l0.4,1.3c-0.7,0.2-1.5,0.4-2.2,0.5c0.4,0.3,0.9,0.9,1.5,1.7l-1.1,0.8c-0.3-0.5-0.7-1.1-1.2-1.9
				c-0.4,0.8-0.8,1.5-1.1,1.9l-1-0.8c0.7-0.8,1.2-1.4,1.5-1.7C423.2,403,422.5,402.8,421.8,402.7z"/>
			<path class="st3" d="M430.3,402.7l0.4-1.3c0.9,0.3,1.6,0.6,2,0.9c-0.1-1.1-0.2-1.8-0.2-2.2h1.3c0,0.6-0.1,1.3-0.2,2.2
				c0.6-0.3,1.3-0.6,2.1-0.8l0.4,1.3c-0.7,0.2-1.5,0.4-2.2,0.5c0.4,0.3,0.9,0.9,1.5,1.7l-1.1,0.8c-0.3-0.5-0.7-1.1-1.2-1.9
				c-0.4,0.8-0.8,1.5-1.1,1.9l-1-0.8c0.7-0.8,1.2-1.4,1.5-1.7C431.7,403,431,402.8,430.3,402.7z"/>
			<path class="st3" d="M438.8,402.7l0.4-1.3c0.9,0.3,1.6,0.6,2,0.9c-0.1-1.1-0.2-1.8-0.2-2.2h1.3c0,0.6-0.1,1.3-0.2,2.2
				c0.6-0.3,1.3-0.6,2.1-0.8l0.4,1.3c-0.7,0.2-1.5,0.4-2.2,0.5c0.4,0.3,0.9,0.9,1.5,1.7l-1.1,0.8c-0.3-0.5-0.7-1.1-1.2-1.9
				c-0.4,0.8-0.8,1.5-1.1,1.9l-1-0.8c0.7-0.8,1.2-1.4,1.5-1.7C440.2,403,439.4,402.8,438.8,402.7z"/>
			<path class="st3" d="M447.2,402.7l0.4-1.3c0.9,0.3,1.6,0.6,2,0.9c-0.1-1.1-0.2-1.8-0.2-2.2h1.3c0,0.6-0.1,1.3-0.2,2.2
				c0.6-0.3,1.3-0.6,2.1-0.8l0.4,1.3c-0.7,0.2-1.5,0.4-2.2,0.5c0.4,0.3,0.9,0.9,1.5,1.7l-1.1,0.8c-0.3-0.5-0.7-1.1-1.2-1.9
				c-0.4,0.8-0.8,1.5-1.1,1.9l-1-0.8c0.7-0.8,1.2-1.4,1.5-1.7C448.6,403,447.9,402.8,447.2,402.7z"/>
		</g>
	</g>
	<g>
		<path class="st27" d="M182.6,251.7c-1.8,1.2-3.3,2.8-4.3,4.8c-1.1-2.1-1.7-4.1-1-6.1C179.9,242.1,181.1,247.6,182.6,251.7z"/>
		<path class="st27" d="M144.2,308.3c-0.8,5.9-3.2,11.4,0.4,16.7c6.9,10.3,16.2,8.4,26.8,5.1c1.7-0.5,3.4-1.1,5.1-1.7v10.5
			c-0.8,0.3-1.6,0.5-2.4,0.8c-11.8,3.9-24.4,6.1-37.6,6.4c-9.6,0.2-19-0.7-28-2.5c-2.1-0.4-4.1-0.9-6.1-1.4c-0.1,0-0.1,0-0.1,0
			c-34.1-8.6-62.9-31-79.9-61v0c-0.2-0.2-0.3-0.5-0.4-0.7c-4.1-7.1-7.4-14.6-10-22.5c-0.3-0.8-0.6-1.7-0.7-2.5
			c-1-3.1-1.9-6.3-2.5-9.5c0.5-3.1,1.4-6.3,1.9-8.3c2.2-8.4,6.2-16.1,11.3-23.1c4.4-6,2.7-7.7,1.2-14.1c-1.5-6,3-7.3,7.6-9.7
			c4-2,7.6-5,9.6-9.1c1-2.1,1.6-9.8,4.4-10c3-0.2,4.8,7.2,6.3,9.1c2.6,3.1,5.6,10,6.9,16.7c2,10.3,6.8,21.2,14.8,26.1
			c6.9,4.2,12.8-0.6,12.6-8.1c-0.2-6.5-5.8-13.1-2.4-19.4c2.1-3.9,6.3-6.2,10.9-7.5c6.6-1.9,11.2,0.3,8.8,2.8
			c-2.3,2.5-3,6.3-4.4,8.9c-0.9,1.6-1.1,3.6-0.2,5.2c1.7,2.9,4.6,3.6,7.3,2.9c4.5-1.1,8.9-4.7,9.3-2.4c0.2,1.2-0.1,2.7-0.5,4.1
			c-0.6,2-1.2,5.4-2.5,7c-1.9,2.4-6,2.5-6.7,6.1c-0.5,2.1,2.1,4.4,2.8,6.4c2,5.8,2.9,11.3,6.7,16.3c3.7,4.9,8.7,8.8,12.7,13.5
			c3.6,4.4,6.2,7.8,12,9.1c6.7,1.5,13.6,1.1,20.3,2.9c5.6,1.5,11.4,3,17.2,2.3v2c-0.6,0.4-1.2,0.7-1.8,1.1c-3.7,2.1-7.4,4-10.4,6.5
			c-5.3,4.3-12.1,10.6-16.3,15C145.9,300.5,144.8,303.6,144.2,308.3z"/>
		<path class="st27" d="M258.3,249.3h-22.1c-2.8-1.3-5-1.1-7.1,0c0,0-0.1,0-0.1,0c-3.2,1.6-5.9,1.1-8.7,0c-1.1-0.4-2.2-0.9-3.4-1.5
			c-9.2-4.2-22-3.3-28.7-12.1c-4-5.2-1.5-12.2-2.2-18.2c-0.5-4.6-9.2-33.1-14.2-30.5c-2.4,1.3-3.4,9-4.2,11.3
			c-3.3,10.1-7.7,16.3-14.6,24.2c-4,4.5-8.9,7.9-12.8,12.4c-1,1.2-1.5,2.5-1.8,3.9c-0.6,2.3-1.5,0.6-2.6-3.7
			c-0.6-2.6-1.6-5.2-2.7-7.6c-1.1-2.4-2.6-4.5-3.9-6.7c-2.3-3.7-1.1,0.1,5.6-0.1c7.2-0.3,15.9-7,14.5-14.9
			c-1.9-10.2,4-25.6,16.5-24.2c4.9,0.6,8.4,5.2,12.7,0.2c1.4-1.6,2.4-3.8,2.6-6c0.5-5.4,1.5-10.8,0.7-16.1c-0.2-1.3-2.2-6.6,1.1-4.7
			c3.4,2,6.1,3.1,7.6,5.8c1.1,2,2.6,3.9,3.5,4.1c5.1,1.7,7-3.6,11-5.1c5.9-2.2,11.5,0.6,14.9-6.3c1.6-3.1,0.7-7.1,2.4-10.1
			c0.8-1.4,2.1-2.4,3.2-3.5c1.9-1.8,3.2-6.2,2.4-8.9c-0.1-0.1-0.1-0.2-0.1-0.3c0,0,0,0,0-0.1c4.1,4.4,7.9,9.2,11.3,14.1
			c14,20.1,22.4,44.3,22.9,70.5C262.4,226.9,261.1,238.4,258.3,249.3z"/>
		<g>
			<g>
				<g>
					<path class="st3" d="M172.7,282.2v43.5c-0.8,0.3-1.6,0.5-2.4,0.8c-3.9,1.2-8.3,2.4-12.1,2.4c-4.6,0-7.8-1.8-10.6-6.1
						c-1.8-2.7-1.4-5.4-0.5-10c0.3-1.3,0.5-2.7,0.7-4.1c0.6-4.1,1.4-6.4,2.8-7.9c3.8-4,10.5-10.2,16-14.7
						C168.4,284.8,170.5,283.5,172.7,282.2 M176.4,275.8c-0.6,0.4-1.2,0.7-1.8,1.1c-3.7,2.1-7.4,4-10.4,6.5
						c-5.3,4.3-12.1,10.6-16.3,15c-2.1,2.2-3.1,5.3-3.8,10c-0.8,5.9-3.2,11.4,0.4,16.7c3.9,5.8,8.5,7.7,13.7,7.7
						c4.1,0,8.5-1.2,13.1-2.6c1.7-0.5,3.4-1.1,5.1-1.7V275.8L176.4,275.8z"/>
				</g>
				<g>
					<path class="st3" d="M133.8,93.1c10.5,0,20.8,1.3,30.8,3.8c4.1,1,7.9,2.2,11.5,3.5l0.6,0.2h0.1c16.4,6,31.7,15.7,44.2,28l0,0
						l0,0c1,0.9,1.9,1.8,2.7,2.6l0.9,1.1c0.1,1.4-0.6,3.8-1.5,4.6c-0.2,0.2-0.4,0.4-0.7,0.6c-1.1,1-2.3,2.1-3.2,3.7l0,0l0,0
						c-1.3,2.2-1.5,4.5-1.8,6.6c-0.2,1.4-0.3,2.7-0.8,3.7c-1.3,2.6-2.5,2.9-6.2,3.2c-2,0.2-4.3,0.4-6.7,1.3c-2.1,0.8-3.7,2.2-5,3.4
						c-1.3,1.1-2.1,1.8-2.8,1.8c-0.1,0-0.2,0-0.4,0c-0.4-0.4-1.1-1.3-1.8-2.6c-1.8-3.1-4.5-4.7-7.4-6.3c-0.5-0.3-1.1-0.6-1.6-0.9
						c-1.1-0.6-2.1-0.9-3-0.9c-1.4,0-2.7,0.6-3.5,1.7c-1.6,2.1-0.9,4.9-0.3,7.2c0.1,0.2,0.1,0.5,0.2,0.6c0.5,3.5,0.1,7.2-0.4,11.1
						c-0.1,1.3-0.3,2.7-0.4,4c-0.1,1.3-0.8,2.8-1.7,3.9c-0.8,1-1.2,1-1.3,1c-0.6,0-1.7-0.4-2.7-0.9c-1.5-0.6-3.3-1.4-5.4-1.6
						c-0.7-0.1-1.4-0.1-2-0.1c-5,0-9.5,2.2-13,6.4c-4.8,5.7-7,14.7-5.6,22.4c0.4,2.4-0.7,4.4-1.7,5.6c-2.2,2.7-6,4.7-9.2,4.9
						c-0.2,0-0.3,0-0.5,0c-1.7,0-3-0.3-4-0.9c-0.3-0.2-1-0.6-2.1-0.6l-2.3,0l-1,2c-0.4,0.8-0.9,2.3,0.5,4.1c0.1,0.2,0.4,0.5,0.7,1.1
						c0.4,0.7,0.8,1.3,1.2,2c0.9,1.5,1.8,2.9,2.5,4.3l0,0l0,0c1.1,2.2,1.9,4.5,2.5,6.8l0,0l0,0c1,3.7,2,7.5,5.6,7.5
						c1,0,3.3-0.4,4.2-3.8l0-0.1l0-0.1c0.3-1.1,0.5-1.8,1-2.3c1.8-2.1,3.9-3.9,6.1-5.9c2.2-2,4.6-4.1,6.7-6.5
						c7.2-8.2,11.8-14.7,15.3-25.4c0.3-0.8,0.5-1.8,0.8-3c0.2-1,0.6-2.8,1.1-4.3c1.2,1.9,2.9,5.4,5,11.2c2.5,6.9,4.1,13.1,4.2,14.5
						c0.2,1.7,0.1,3.6,0,5.6c-0.3,4.6-0.6,9.9,2.9,14.5c2.9,3.8,6.7,6.1,10.7,7.6h-5.6c-2,0-3.9,0.3-5.8,1c-1-2.3-2.3-4.2-4.9-4.2
						c0,0,0,0,0,0c-3.8,0-5.3,4.5-6.1,6.9c-0.9,2.8-0.2,5.4,0.5,7.2c-0.9,2.2-1.4,4.5-1.4,6.8v6.9c-4.1-0.1-8.4-1.3-12.5-2.4
						c-3.9-1-7.7-1.4-11.4-1.7c-3.1-0.3-6.1-0.5-9-1.2c-4.3-1-6.3-3.4-9.7-7.5l-0.3-0.3c-1.9-2.3-4-4.3-6-6.3
						c-2.4-2.3-4.7-4.6-6.5-7c-2.5-3.3-3.6-6.9-4.8-11c-0.4-1.4-0.9-2.8-1.4-4.3c-0.4-1.1-1.1-2.2-1.6-3.1c-0.3-0.5-0.8-1.2-0.9-1.6
						c0.2-0.3,0.6-0.6,1.9-1.3c1.3-0.7,2.9-1.6,4.1-3.1c1.6-2,2.4-5,3-7.4c0.1-0.4,0.2-0.7,0.3-1c0.5-1.7,0.9-3.8,0.5-5.7
						c-0.4-2.3-2.3-3.8-4.6-3.8c-1.6,0-3.1,0.7-5,1.6c-1.4,0.6-2.9,1.3-4.3,1.7c-0.4,0.1-0.7,0.1-1,0.1c-1,0-1.6-0.4-2.2-1.3
						c-0.2-0.4,0-1,0.2-1.4c0.7-1.2,1.2-2.5,1.7-3.8c0.7-1.7,1.3-3.4,2.2-4.4c1.6-1.7,2.1-3.9,1.2-5.9c-1.1-2.5-4-4-8.1-4
						c-1.8,0-3.8,0.3-5.7,0.9c-6.4,1.9-10.8,5-13.1,9.4c-2.9,5.4-1,10.7,0.5,15.1c0.8,2.3,1.5,4.4,1.6,6.3c0.1,2-0.5,3.8-1.5,4.8
						c-0.6,0.7-1.4,1-2.3,1c-0.9,0-2-0.3-3-1c-6.1-3.7-11-12.5-13.1-23.6c-1.3-7-4.5-14.5-7.6-18.3c-0.2-0.3-0.7-1.5-1.1-2.2
						c-1.5-3.5-3.6-8.3-8-8.3c-0.1,0-0.3,0-0.4,0c-4.7,0.4-6,5.8-6.9,9.8c-0.2,0.8-0.5,2-0.6,2.3c-1.9,3.8-5.3,6.1-7.9,7.4
						c-0.5,0.2-0.9,0.5-1.4,0.7c-4.1,1.9-10.2,4.9-8.1,13.2c0.3,1.1,0.5,2,0.8,2.9c1.1,3.9,1.3,4.5-1.3,8.1
						c-3.9,5.4-7,10.8-9.2,16.2c-0.2-2.8-0.4-5.5-0.4-8.3C9,209,10.3,197.8,13,187c1-4.1,2.2-7.9,3.5-11.4l0.2-0.7v0
						c1.2-3.2,2.6-6.5,4.2-9.9c0.2-0.3,0.3-0.7,0.5-1l0,0l0,0c1.6-3.3,3.4-6.7,5.3-9.9l1.2-2.1c1.7-2.8,3.5-5.3,5.3-7.7l1.7-2.3l0,0
						c15.3-20,36-34.6,59.8-42.5c11.7-3.9,23.9-6,36.4-6.2C132.1,93.2,133,93.1,133.8,93.1 M133.8,89.4c-0.9,0-1.7,0-2.6,0
						c-13.1,0.3-25.7,2.5-37.6,6.4c-25.7,8.5-47.7,24.8-63.3,46.1c0,0,0,0,0,0c-2.4,3.2-4.7,6.6-6.7,10.1c0,0,0,0,0,0.1
						c-2,3.3-3.8,6.7-5.5,10.2c-0.2,0.4-0.4,0.8-0.6,1.1c-1.6,3.5-3.2,7.1-4.5,10.8c0,0,0,0,0,0c-1.4,3.8-2.6,7.8-3.6,11.8
						c-2.8,10.9-4.1,22.4-3.9,34.3c0.2,8.8,1.2,17.4,3.1,25.6c0.5-3.1,1.4-6.3,1.9-8.3c2.2-8.4,6.2-16.1,11.3-23.1
						c4.4-6,2.7-7.7,1.2-14.1c-1.5-6,3-7.3,7.6-9.7c4-2,7.6-5,9.6-9.1c1-2.1,1.6-9.8,4.4-10c0,0,0.1,0,0.1,0c2.9,0,4.7,7.2,6.1,9.1
						c2.6,3.1,5.6,10,6.9,16.7c2,10.3,6.7,21.2,14.8,26.1c1.8,1.1,3.4,1.5,5,1.5c4.5,0,7.7-4.1,7.6-9.7c-0.2-6.5-5.8-13.1-2.4-19.4
						c2.1-3.9,6.3-6.2,10.9-7.5c1.7-0.5,3.3-0.7,4.7-0.7c3.8,0,5.9,1.7,4.1,3.5c-2.3,2.5-3,6.3-4.4,8.9c-0.9,1.6-1.1,3.6-0.2,5.2
						c1.3,2.2,3.3,3.1,5.4,3.1c0.7,0,1.3-0.1,2-0.3c3.5-0.9,6.9-3.1,8.5-3.1c0.5,0,0.8,0.2,0.9,0.7c0.2,1.2-0.1,2.7-0.5,4.1
						c-0.6,2-1.2,5.4-2.5,7c-1.9,2.4-6,2.5-6.7,6.1c-0.5,2.1,2.1,4.4,2.8,6.4c2,5.8,2.9,11.3,6.7,16.3c3.7,4.9,8.7,8.8,12.7,13.5
						c3.6,4.4,6.2,7.8,12,9.1c6.7,1.5,13.6,1.1,20.3,2.9c4.6,1.2,9.4,2.5,14.2,2.5c1,0,2.1-0.1,3.1-0.2v-10.5c0-2.5,0.6-4.8,1.8-6.8
						c-1.1-2.1-1.7-4.1-1-6.1c1-3.2,1.8-4.3,2.5-4.3c1.1,0,1.9,3.1,2.8,5.6c2.2-1.5,5-2.4,7.9-2.4h30c-1.1-0.4-2.2-0.9-3.4-1.5
						c-9.2-4.2-22-3.3-28.7-12.1c-4-5.2-1.5-12.2-2.2-18.2c-0.5-4.4-8.5-30.7-13.5-30.7c-0.2,0-0.5,0.1-0.7,0.2
						c-2.4,1.3-3.4,9-4.2,11.3c-3.3,10.1-7.7,16.3-14.6,24.2c-4,4.5-8.9,7.9-12.8,12.4c-1,1.2-1.5,2.5-1.8,3.9c-0.2,0.7-0.4,1-0.6,1
						c-0.5,0-1.2-1.8-2-4.8c-0.6-2.6-1.6-5.2-2.7-7.6c-1.1-2.4-2.6-4.5-3.9-6.7c-0.7-1.2-1.1-1.6-1.1-1.6c0.1,0,2,1.5,6.1,1.5
						c0.2,0,0.4,0,0.6,0c7.2-0.3,15.9-7,14.5-14.9c-1.8-9.7,3.5-24.3,14.9-24.3c0.5,0,1.1,0,1.6,0.1c3.3,0.4,5.9,2.5,8.5,2.5
						c1.4,0,2.7-0.6,4.2-2.3c1.4-1.6,2.4-3.8,2.6-6c0.5-5.4,1.5-10.8,0.7-16.1c-0.2-1.1-1.7-5.1,0-5.1c0.3,0,0.7,0.1,1.2,0.4
						c3.4,2,6.1,3.1,7.6,5.8c1.1,2,2.6,3.9,3.5,4.1c0.7,0.2,1.3,0.3,1.9,0.3c3.7,0,5.6-4.1,9.1-5.5c5.9-2.2,11.5,0.6,14.9-6.3
						c1.6-3.1,0.7-7.1,2.4-10.1c0.8-1.4,2.1-2.4,3.2-3.5c1.9-1.8,3.2-6.2,2.4-8.9c-0.1-0.1-0.1-0.2-0.1-0.3c0,0,0,0,0-0.1
						c-0.1,0-0.1,0-0.1-0.1c-1.3-1.5-2.7-2.9-4.2-4.3c-13-12.8-28.7-22.8-46.2-29.1c-0.1,0-0.1,0-0.1,0c-3.9-1.4-7.8-2.6-11.9-3.7
						C155.4,90.7,144.7,89.4,133.8,89.4L133.8,89.4z"/>
				</g>
				<g>
					<path class="st3" d="M232.6,248.4c-1.2,0-2.3,0.3-3.4,0.8c0,0-0.1,0-0.1,0h7.2C234.9,248.6,233.7,248.4,232.6,248.4
						L232.6,248.4z"/>
				</g>
			</g>
		</g>
	</g>
	<path class="st25" d="M250,337.6c0-4,3.3-7.3,7.3-7.3h240c4,0,7.3,3.3,7.3,7.3v17.9c0,4-3.3,7.3-7.3,7.3h-240c-4,0-7.3-3.3-7.3-7.3
		V337.6z M506.2,466.2c0,4-3.3,7.3-7.3,7.3h-240c-4,0-7.3-3.3-7.3-7.3v-17.9c0-4,3.3-7.3,7.3-7.3h240c3.1,0,5.7,1.9,6.8,4.6
		c0.3,0.8,0.5,1.7,0.5,2.7V466.2z M261.8,366c-17.7,2.2-14.1,18.2-14.1,27.3v130.5h319.6c7.7,0,14-6.3,14-14V263.3
		c0-7.7-6.3-14-14-14H190.4c-2.9,0-5.6,0.9-7.9,2.4c-1.8,1.2-3.3,2.8-4.3,4.8c-1.1,2-1.8,4.3-1.8,6.8v102.5h84c0.5,0,1,0,1.4,0.1
		L261.8,366z M498.9,387.6H276.6c0.5,2.9,0.8,6.1,0.8,9.3c0,9.2-2.1,17.4-5.6,23.2h227.1c4,0,7.3-3.3,7.3-7.3v-17.9
		C506.2,390.9,502.9,387.6,498.9,387.6z"/>
	<path class="st25" d="M277.4,397c0,9.2-2.1,17.4-5.6,23.2c-3,5-7,8.1-11.3,8.1h-12.8v-34.9c0-9.1-3.7-25.4,14.6-27.3
		c3.9,0.8,7.5,4.1,10.1,9c1.9,3.5,3.4,7.9,4.2,12.7C277.1,390.6,277.4,393.7,277.4,397z"/>
	<g>
		<path class="st25" d="M262.1,365.8v0.1c-18.1,2-14.4,18.2-14.4,27.3v220.6c0,9.7-7.9,17.6-17.6,17.6H125.3
			c44.2-0.2,91.5-0.4,102.7-0.5c-5.4-0.4-17.7-4.2-19.5-29.3H29.9V383.3c0-9.7,7.9-17.6,17.6-17.6h213L262.1,365.8z"/>
		<path class="st25" d="M228,631c-11.2,0.1-58.4,0.3-102.7,0.5c-38.4,0.2-74.4,0.2-82.7,0c-19.2-0.5-25.8-29.8-25.8-29.8s4,0,13.2,0
			h178.6C210.3,626.8,222.6,630.5,228,631z"/>
		<path class="st25" d="M230.4,630.9c0,0-0.9,0.1-2.4,0C229.6,630.9,230.4,630.9,230.4,630.9z"/>
		<rect x="53.8" y="380.6" class="st25" width="174.1" height="214.6"/>
		<rect x="64.3" y="566.7" class="st3" width="39.9" height="3"/>
		<rect x="64.3" y="572.6" class="st3" width="39.9" height="3"/>
		<rect x="64.3" y="578.6" class="st3" width="19.9" height="3"/>
		<rect x="119.1" y="566.7" class="st3" width="39.9" height="3"/>
		<rect x="119.1" y="572.6" class="st3" width="39.9" height="3"/>
		<rect x="119.1" y="578.6" class="st3" width="19.9" height="3"/>
		<rect x="171.6" y="566.7" class="st3" width="39.9" height="3"/>
		<rect x="171.6" y="572.6" class="st3" width="39.9" height="3"/>
		<rect x="171.6" y="578.6" class="st3" width="19.9" height="3"/>
		<path class="st25" d="M107.1,548.4c0,3.3-1.5,6-3.4,6H67.7c-1.9,0-3.4-2.7-3.4-6v-35c0-3.3,1.5-6,3.4-6h36.1c1.9,0,3.4,2.7,3.4,6
			V548.4z"/>
		<path class="st25" d="M160.6,548.4c0,3.3-1.5,6-3.4,6h-36.1c-1.9,0-3.4-2.7-3.4-6v-35c0-3.3,1.5-6,3.4-6h36.1c1.9,0,3.4,2.7,3.4,6
			V548.4z"/>
		<path class="st25" d="M213.4,548.4c0,3.3-1.5,6-3.4,6h-36.1c-1.9,0-3.4-2.7-3.4-6v-35c0-3.3,1.5-6,3.4-6H210c1.9,0,3.4,2.7,3.4,6
			V548.4z"/>
		<rect x="63.9" y="430.4" class="st25" width="155.1" height="65.4"/>
		<path class="st3" d="M218.1,419.1h-39.7v-10.7h39.7V419.1z M120.2,419.1H62.1v-10.7h58.1V419.1z"/>
		<rect x="53.8" y="380.6" class="st25" width="174.1" height="18.3"/>
	</g>
	<g>
		<g>
			<path class="st3" d="M355.7,464.7v-12.4h1.6v10.9h6.1v1.5H355.7z"/>
			<path class="st3" d="M364.9,458.6c0-2.1,0.6-3.7,1.7-4.8c1.1-1.2,2.5-1.7,4.3-1.7c1.1,0,2.2,0.3,3.1,0.8c0.9,0.5,1.6,1.3,2.1,2.3
				c0.5,1,0.7,2.1,0.7,3.3c0,1.3-0.3,2.4-0.8,3.4c-0.5,1-1.2,1.7-2.2,2.3c-0.9,0.5-1.9,0.8-3,0.8c-1.2,0-2.2-0.3-3.1-0.8
				c-0.9-0.6-1.6-1.3-2.1-2.3C365.1,460.7,364.9,459.7,364.9,458.6z M366.6,458.6c0,1.5,0.4,2.7,1.2,3.5s1.8,1.3,3,1.3
				c1.2,0,2.3-0.4,3.1-1.3s1.2-2.1,1.2-3.7c0-1-0.2-1.9-0.5-2.6c-0.3-0.8-0.8-1.3-1.5-1.8c-0.7-0.4-1.4-0.6-2.2-0.6
				c-1.2,0-2.2,0.4-3,1.2C367,455.4,366.6,456.8,366.6,458.6z"/>
			<path class="st3" d="M384.7,459.8v-1.5l5.3,0v4.6c-0.8,0.6-1.6,1.1-2.5,1.5s-1.7,0.5-2.6,0.5c-1.2,0-2.3-0.3-3.3-0.8
				c-1-0.5-1.7-1.3-2.3-2.3c-0.5-1-0.8-2.1-0.8-3.3c0-1.2,0.3-2.3,0.8-3.4c0.5-1,1.2-1.8,2.2-2.3c0.9-0.5,2-0.8,3.3-0.8
				c0.9,0,1.7,0.1,2.4,0.4c0.7,0.3,1.3,0.7,1.7,1.2c0.4,0.5,0.7,1.2,0.9,2l-1.5,0.4c-0.2-0.6-0.4-1.1-0.7-1.5
				c-0.3-0.4-0.7-0.6-1.2-0.9c-0.5-0.2-1.1-0.3-1.7-0.3c-0.8,0-1.4,0.1-1.9,0.3c-0.5,0.2-1,0.5-1.3,0.9c-0.3,0.4-0.6,0.8-0.8,1.2
				c-0.3,0.8-0.5,1.6-0.5,2.5c0,1.1,0.2,2,0.6,2.8s0.9,1.3,1.7,1.7c0.7,0.4,1.5,0.5,2.3,0.5c0.7,0,1.4-0.1,2.1-0.4
				c0.7-0.3,1.2-0.6,1.5-0.9v-2.3H384.7z"/>
			<path class="st3" d="M392.7,464.7v-12.4h1.6v12.4H392.7z"/>
			<path class="st3" d="M397.2,464.7v-12.4h1.7l6.5,9.7v-9.7h1.6v12.4h-1.7l-6.5-9.7v9.7H397.2z"/>
		</g>
	</g>
</g>
</svg>
