<?xml version="1.0" encoding="utf-8"?>
<!-- Generator: Adobe Illustrator 26.0.1, SVG Export Plug-In . SVG Version: 6.00 Build 0)  -->
<svg version="1.1" id="Layer_1" xmlns="http://www.w3.org/2000/svg" xmlns:xlink="http://www.w3.org/1999/xlink" x="0px" y="0px"
	 viewBox="0 0 721 721" style="enable-background:new 0 0 721 721;" xml:space="preserve">
<style type="text/css">
	.st0{fill:url(#SVGID_1_);}
	.st1{fill:#55CA8F;stroke:#FFFFFF;stroke-miterlimit:10;}
	.st2{fill:none;stroke:#FFFFFF;stroke-width:0.25;}
	.st3{fill:#FFFFFF;}
	.st4{fill:#A06733;}
	.st5{fill:#F0C88A;}
	.st6{fill:#63C3B2;}
	
		.st7{fill-rule:evenodd;clip-rule:evenodd;fill:#FFFFFF;stroke:url(#SVGID_00000154426084025551140470000007846370734993724306_);stroke-width:0.75;stroke-miterlimit:10;}
	.st8{fill:none;}
	.st9{fill:url(#SVGID_00000132069967694136553180000011133207445427231617_);}
	.st10{fill:url(#SVGID_00000085233963013968838190000000007667781390472846_);}
	
		.st11{fill-rule:evenodd;clip-rule:evenodd;fill:none;stroke:url(#SVGID_00000033366884441003989450000006704445777254324643_);stroke-width:0.75;stroke-miterlimit:10;}
	.st12{fill:#C33B3B;}
	.st13{fill:none;stroke:#C6D6D7;stroke-width:0.25;}
	.st14{filter:url(#Adobe_OpacityMaskFilter);}
	.st15{fill:#020202;}
	.st16{mask:url(#SVGID_00000013180384223380097610000013851678723135755178_);}
	.st17{filter:url(#Adobe_OpacityMaskFilter_00000143607981784838998400000001443755740707499708_);}
	.st18{fill:none;stroke:#FFFFFF;stroke-width:1.348;}
	.st19{fill:none;stroke:#FFFFFF;stroke-width:1.331;}
	.st20{fill:none;stroke:#FFFFFF;stroke-width:1.331;stroke-dasharray:8.1253,8.1253;}
	.st21{fill:none;stroke:#FFFFFF;stroke-width:1.331;stroke-dasharray:8.1405,8.1405;}
	.st22{fill:none;stroke:#FFFFFF;stroke-width:4.937;}
	.st23{fill:none;stroke:#FFFFFF;stroke-width:0.9874;stroke-miterlimit:10;}
	.st24{fill:none;stroke:#FFFFFF;stroke-width:4.5457;stroke-miterlimit:10;}
	.st25{fill:none;stroke:#FFFFFF;stroke-width:3.7361;stroke-miterlimit:10;}
	.st26{fill:none;stroke:#FFFFFF;stroke-width:1.1549;}
	.st27{fill-rule:evenodd;clip-rule:evenodd;fill:#FFFFFF;}
</style>
<g>
	<g>
		<g>
			<g>
				<g>
					<g>
						<path class="st3" d="M640.7,272.1c1.8,1.1,1.8,2.9,0,4l-26,16.3c-1.8,1.1-3.2,0.2-3.2-2v-32.6c0-2.2,1.4-3.1,3.2-2
							L640.7,272.1z"/>
					</g>
				</g>
				<g>
					<path class="st25" d="M667.2,308.8c-24,3.2-48,3.8-72,1.9c-5.9-0.5-11.8-1.1-17.8-1.9c-5.1-23.1-5.1-46.2,0-69.4
						c5.9-0.8,11.8-1.4,17.8-1.9c24-1.9,48-1.3,72,1.9C672.3,262.6,672.3,285.7,667.2,308.8z"/>
					<path class="st25" d="M172.7,383.5c-20,2.6-40.1,3.5-60.1,2.6c-9.9-0.4-19.8-1.3-29.7-2.6c-5.1-23.1-5.1-46.2,0-69.4
						c9.9-1.3,19.8-2.2,29.7-2.6c20-0.9,40.1,0,60.1,2.6C177.8,337.3,177.8,360.4,172.7,383.5z"/>
					<g>
						<path class="st25" d="M577.5,239.4c-5.1,23.1-5.1,46.2,0,69.4c5.9,0.8,11.8,1.4,17.8,1.9v133.5H112.6v-58
							c20,0.9,40.1,0,60.1-2.6c5.1-23.1,5.1-46.2,0-69.4c-20-2.6-40.1-3.5-60.1-2.6V204.8h482.6v32.7
							C589.3,238,583.4,238.7,577.5,239.4z"/>
					</g>
					<g>
						<rect x="112.6" y="445.1" class="st25" width="482.5" height="52.8"/>
					</g>
					<g>
						<rect x="151.4" y="468" class="st3" width="368.9" height="7"/>
					</g>
					<g>
						<rect x="151.4" y="468" class="st25" width="119.3" height="7"/>
					</g>
					<g>
						<path class="st3" d="M127,480.6c-1,0-1.7-0.8-1.7-2V464c0-1.2,0.7-2,1.7-2c0.4,0,0.7,0.1,1.1,0.3l12.6,7.3
							c0.7,0.4,1.1,1,1.1,1.7c0,0.6-0.4,1.3-1.1,1.6l-12.6,7.3C127.8,480.5,127.4,480.6,127,480.6L127,480.6z"/>
					</g>
					<g>
						<g>
							<g>
								<rect x="547.5" y="461.5" class="st3" width="2" height="20"/>
							</g>
						</g>
						<rect x="542.4" y="465.5" class="st3" width="2" height="16"/>
						<rect x="537.4" y="469.5" class="st3" width="2" height="12"/>
						<rect x="532.4" y="473.5" class="st3" width="2" height="8"/>
					</g>
					<g>
						<g>
							<path class="st3" d="M579.9,481.5h-18.3c-0.5,0-0.8-0.4-0.8-0.8v-18.3c0-0.5,0.4-0.8,0.8-0.8h9.1c0.5,0,0.8,0.4,0.8,0.8
								c0,0.5-0.4,0.8-0.8,0.8h-8.2v16.6H579v-8.2c0-0.5,0.4-0.8,0.8-0.8c0.5,0,0.8,0.4,0.8,0.8v9.1
								C580.7,481.1,580.3,481.5,579.9,481.5L579.9,481.5z"/>
						</g>
						<g>
							<g>
								<path class="st3" d="M579.9,468.2c-0.5,0-0.8-0.4-0.8-0.8v-4.1l-4.1,0c-0.5,0-0.8-0.4-0.8-0.8c0-0.5,0.4-0.8,0.8-0.8l0,0h5
									c0.5,0,0.8,0.4,0.8,0.8v5C580.7,467.8,580.3,468.2,579.9,468.2L579.9,468.2L579.9,468.2z"/>
							</g>
							<g>
								<path class="st3" d="M572,471.1c-0.2,0-0.4-0.1-0.6-0.2c-0.3-0.3-0.3-0.9,0-1.2l7.2-7.2c0.3-0.3,0.9-0.3,1.2,0
									c0.3,0.3,0.3,0.9,0,1.2l-7.2,7.2C572.4,471,572.2,471.1,572,471.1L572,471.1z"/>
							</g>
						</g>
					</g>
				</g>
				<g>
					<g>
						<g>
							<path class="st25" d="M570.5,166.4c-18.4,2.4-36.8,2.4-55.2,0c-3.1-14.2-3.1-28.4,0-42.6c18.4-2.4,36.8-2.4,55.2,0
								C573.6,138,573.6,152.2,570.5,166.4z"/>
						</g>
						<path class="st3" d="M554.2,143.9c1.1,0.7,1.1,1.8,0,2.5l-16,10c-1.1,0.7-2,0.1-2-1.2v-20.1c0-1.3,0.9-1.9,2-1.2L554.2,143.9z
							"/>
					</g>
				</g>
				<g>
					<g>
						<g>
							<path class="st25" d="M68,465.3c-18.4,2.4-36.8,2.4-55.2,0c-3.1-14.2-3.1-28.4,0-42.6c18.4-2.4,36.8-2.4,55.2,0
								C71.2,436.9,71.2,451.1,68,465.3z"/>
						</g>
						<path class="st3" d="M51.7,442.8c1.1,0.7,1.1,1.8,0,2.5l-16,10c-1.1,0.7-2,0.1-2-1.2V434c0-1.3,0.9-1.9,2-1.2L51.7,442.8z"/>
					</g>
				</g>
				<g>
					<g>
						<g>
							<path class="st25" d="M374.4,569.9c-18.4,2.4-36.8,2.4-55.2,0c-3.1-14.2-3.1-28.4,0-42.6c18.4-2.4,36.8-2.4,55.2,0
								C377.5,541.5,377.5,555.7,374.4,569.9z"/>
						</g>
						<path class="st3" d="M358.1,547.4c1.1,0.7,1.1,1.8,0,2.5l-16,10c-1.1,0.7-2,0.1-2-1.2v-20.1c0-1.3,0.9-1.9,2-1.2L358.1,547.4z
							"/>
					</g>
				</g>
				<g>
					<g>
						<g>
							<ellipse class="st25" cx="692.5" cy="172.7" rx="23.5" ry="18.1"/>
						</g>
						<path class="st3" d="M699.3,171.9c0.6,0.4,0.6,1.1,0,1.5l-9.6,6c-0.6,0.4-1.2,0.1-1.2-0.7v-12.1c0-0.8,0.5-1.1,1.2-0.7
							L699.3,171.9z"/>
					</g>
				</g>
				<g>
					<g>
						<g>
							<ellipse class="st25" cx="44.3" cy="245.5" rx="23.5" ry="18.1"/>
						</g>
						<path class="st3" d="M51.1,244.8c0.6,0.4,0.6,1.1,0,1.5l-9.6,6c-0.6,0.4-1.2,0.1-1.2-0.7v-12.1c0-0.8,0.5-1.1,1.2-0.7
							L51.1,244.8z"/>
					</g>
				</g>
				<g>
					<g>
						<g>
							<path class="st25" d="M462,597.9c-11.1,1.5-22.1,1.5-33.2,0c-1.9-8.5-1.9-17.1,0-25.6c11.1-1.5,22.1-1.5,33.2,0
								C463.9,580.9,463.9,589.4,462,597.9z"/>
						</g>
						<path class="st3" d="M452.2,584.4c0.6,0.4,0.6,1.1,0,1.5l-9.6,6c-0.6,0.4-1.2,0.1-1.2-0.7v-12.1c0-0.8,0.5-1.1,1.2-0.7
							L452.2,584.4z"/>
					</g>
				</g>
				<g>
					<g>
						<g>
							<path class="st25" d="M413.5,153.4c-11.1,1.5-22.1,1.5-33.2,0c-1.9-8.5-1.9-17.1,0-25.6c11.1-1.5,22.1-1.5,33.2,0
								C415.3,136.3,415.3,144.8,413.5,153.4z"/>
						</g>
						<path class="st3" d="M403.7,139.8c0.6,0.4,0.6,1.1,0,1.5l-9.6,6c-0.6,0.4-1.2,0.1-1.2-0.7v-12.1c0-0.8,0.5-1.1,1.2-0.7
							L403.7,139.8z"/>
					</g>
				</g>
			</g>
			<g>
				<path class="st3" d="M331.5,354.1c-3.5,0-5.9-2.8-5.9-6.8v-50.1c0-4,2.4-6.8,5.9-6.8c1.3,0,2.6,0.4,3.9,1.1l43.4,25
					c2.3,1.3,3.7,3.4,3.7,5.7c0,2.2-1.4,4.3-3.7,5.7l-43.4,25C334.1,353.7,332.8,354.1,331.5,354.1L331.5,354.1z"/>
			</g>
		</g>
	</g>
	<path class="st3" d="M146.1,346.9c1.8,1.1,1.8,2.9,0,4l-26,16.3c-1.8,1.1-3.2,0.2-3.2-2v-32.6c0-2.2,1.4-3.1,3.2-2L146.1,346.9z"/>
</g>
</svg>
