<?xml version="1.0" encoding="utf-8"?>
<!-- Generator: Adobe Illustrator 26.0.1, SVG Export Plug-In . SVG Version: 6.00 Build 0)  -->
<svg version="1.1" id="Layer_1" xmlns="http://www.w3.org/2000/svg" xmlns:xlink="http://www.w3.org/1999/xlink" x="0px" y="0px"
	 viewBox="0 0 721 721" style="enable-background:new 0 0 721 721;" xml:space="preserve">
<style type="text/css">
	.st0{fill:url(#SVGID_1_);}
	.st1{fill:#55CA8F;stroke:#FFFFFF;stroke-miterlimit:10;}
	.st2{fill:none;stroke:#FFFFFF;stroke-width:0.25;}
	.st3{fill:#FFFFFF;}
	.st4{fill:#A06733;}
	.st5{fill:#F0C88A;}
	.st6{fill:#63C3B2;}
	
		.st7{fill-rule:evenodd;clip-rule:evenodd;fill:#FFFFFF;stroke:url(#SVGID_00000098908763650564131740000011116174812581267112_);stroke-width:0.75;stroke-miterlimit:10;}
	.st8{fill:none;}
	.st9{fill:url(#SVGID_00000157298369997124488420000001017840903401947789_);}
	.st10{fill:url(#SVGID_00000066488571365994222590000004913186487670494133_);}
	
		.st11{fill-rule:evenodd;clip-rule:evenodd;fill:none;stroke:url(#SVGID_00000117671299853559774710000012746388350093845895_);stroke-width:0.75;stroke-miterlimit:10;}
	.st12{fill:#C33B3B;}
	.st13{fill:none;stroke:#C6D6D7;stroke-width:0.25;}
	.st14{filter:url(#Adobe_OpacityMaskFilter);}
	.st15{fill:#020202;}
	.st16{mask:url(#SVGID_00000117676528592662499440000003330873846873626290_);}
	.st17{filter:url(#Adobe_OpacityMaskFilter_00000083768602485667854430000013524057982718810514_);}
	.st18{fill:none;stroke:#FFFFFF;stroke-width:1.348;}
	.st19{fill:none;stroke:#FFFFFF;stroke-width:1.331;}
	.st20{fill:none;stroke:#FFFFFF;stroke-width:1.331;stroke-dasharray:8.1253,8.1253;}
	.st21{fill:none;stroke:#FFFFFF;stroke-width:1.331;stroke-dasharray:8.1405,8.1405;}
	.st22{fill:none;stroke:#FFFFFF;stroke-width:4.937;}
	.st23{fill:none;stroke:#FFFFFF;stroke-width:0.9874;stroke-miterlimit:10;}
	.st24{fill:none;stroke:#FFFFFF;stroke-width:4.5457;stroke-miterlimit:10;}
	.st25{fill:none;stroke:#FFFFFF;stroke-width:3.7361;stroke-miterlimit:10;}
	.st26{fill:none;stroke:#FFFFFF;stroke-width:1.1549;}
	.st27{fill-rule:evenodd;clip-rule:evenodd;fill:#FFFFFF;}
</style>
<g id="XMLID_00000065060901756463697810000014674986939526863778_">
	<defs>
		<filter id="Adobe_OpacityMaskFilter" filterUnits="userSpaceOnUse" x="-0.2" y="134.3" width="721.4" height="452.3">
			<feFlood  style="flood-color:white;flood-opacity:1" result="back"/>
			<feBlend  in="SourceGraphic" in2="back" mode="normal"/>
		</filter>
	</defs>
	<mask maskUnits="userSpaceOnUse" x="-0.2" y="134.3" width="721.4" height="452.3" id="SVGID_1_">
		<g class="st14">
			<g>
				<path class="st15" d="M219.9,279.1H91.8c-3.7,0-6.7,3-6.7,6.7v106.2c0,3.7,3,6.7,6.7,6.7h128.1c3.7,0,6.7-3,6.7-6.7V285.8
					C226.6,282.1,223.6,279.1,219.9,279.1L219.9,279.1z"/>
			</g>
		</g>
	</mask>
	<g style="mask:url(#SVGID_1_);">
		<defs>
			
				<filter id="Adobe_OpacityMaskFilter_00000001656310793036511660000014909035138397292168_" filterUnits="userSpaceOnUse" x="-0.2" y="134.3" width="496.2" height="407.2">
				<feFlood  style="flood-color:white;flood-opacity:1" result="back"/>
				<feBlend  in="SourceGraphic" in2="back" mode="normal"/>
			</filter>
		</defs>
		<mask maskUnits="userSpaceOnUse" x="-0.2" y="134.3" width="496.2" height="407.2" id="SVGID_1_">
			<g style="filter:url(#Adobe_OpacityMaskFilter_00000001656310793036511660000014909035138397292168_);">
				<g>
					<g>
						<path d="M377,567.2h305.6h8V372.9c0-4.4-3.5-8-8-8H377c-4.4,0-8,3.6-8,8v194.2H377z"/>
					</g>
				</g>
			</g>
		</mask>
		<g>
			<g>
				<g>
					<path class="st18" d="M320.9,534.5H175c3.3-13.4,6.5-26.8,9.8-40.1H311C314.3,507.8,317.6,521.1,320.9,534.5z"/>
					<path class="st18" d="M337.8,539.1v1.7H158.1v-1.7c0-2.5,3.4-4.6,7.5-4.6h164.6C334.4,534.5,337.8,536.6,337.8,539.1z"/>
					<path class="st18" d="M369,446.7v47.7H12.8c-6.8,0-12.3-5.5-12.3-12.3v-35.4H369z"/>
					<path class="st18" d="M495.4,147.3v217.6H377c-4.4,0-8,3.6-8,8v73.8H0.5V147.3c0-6.8,5.5-12.3,12.3-12.3h470.2
						C489.9,135,495.4,140.5,495.4,147.3z"/>
					<path class="st18" d="M475.1,154.3v210.6H377c-4.4,0-8,3.6-8,8v53.4H20.8v-272H475.1z"/>
				</g>
			</g>
			<g>
				<g>
					<path class="st18" d="M47,294.4c-3.3,0-6-2.7-6-6V182.3c0-3.3,2.7-6,6-6h128.1c3.3,0,6,2.7,6,6v106.2c0,3.3-2.7,6-6,6H47z"/>
				</g>
				<line class="st18" x1="41.8" y1="197.3" x2="180.4" y2="197.3"/>
				<g>
					<path class="st18" d="M57.3,188.3c0,1.9-1.6,3.5-3.5,3.5c-1.9,0-3.5-1.6-3.5-3.5c0-1.9,1.6-3.5,3.5-3.5
						C55.7,184.8,57.3,186.4,57.3,188.3z"/>
					<path class="st18" d="M67.2,188.3c0,1.9-1.6,3.5-3.5,3.5c-2,0-3.5-1.6-3.5-3.5c0-1.9,1.6-3.5,3.5-3.5
						C65.6,184.8,67.2,186.4,67.2,188.3z"/>
					<path class="st18" d="M77.1,188.3c0,1.9-1.6,3.5-3.5,3.5c-2,0-3.5-1.6-3.5-3.5c0-1.9,1.6-3.5,3.5-3.5
						C75.5,184.8,77.1,186.4,77.1,188.3z"/>
				</g>
				<rect x="87" y="185.2" class="st18" width="82" height="6.4"/>
				<rect x="47.9" y="205.3" class="st3" width="30.8" height="2.8"/>
				<rect x="47.9" y="264" class="st3" width="33" height="2.8"/>
				<rect x="47.9" y="272.1" class="st3" width="122.9" height="2.8"/>
				<rect x="47.9" y="280.2" class="st3" width="122.9" height="2.8"/>
				<rect x="151.9" y="205.3" class="st3" width="19.5" height="2.8"/>
				<rect x="127.3" y="205.3" class="st3" width="19.5" height="2.8"/>
				<rect x="102.6" y="205.3" class="st3" width="19.5" height="2.8"/>
				<rect x="47.9" y="218.6" class="st18" width="123.5" height="37"/>
			</g>
			<g>
				<g>
					<g>
						<g>
							<path class="st18" d="M435.3,216v148.9H377c-4.4,0-8,3.6-8,8v4.8H212c-5.7,0-10.4-4.7-10.4-10.4V216
								c0-5.7,4.7-10.4,10.4-10.4h212.9C430.7,205.7,435.3,210.3,435.3,216z"/>
						</g>
					</g>
				</g>
				<rect x="213.6" y="234.2" class="st18" width="51.1" height="4.6"/>
				<rect x="386.3" y="234.2" class="st18" width="32.5" height="4.6"/>
				<rect x="345.3" y="234.2" class="st18" width="32.5" height="4.6"/>
				<rect x="304.4" y="234.2" class="st18" width="32.5" height="4.6"/>
				<rect x="319.5" y="258.2" class="st18" width="54.8" height="7.5"/>
				<rect x="319.5" y="277.2" class="st18" width="99.1" height="4.6"/>
				<rect x="319.5" y="291.4" class="st18" width="84.2" height="4.6"/>
				<rect x="319.5" y="305.5" class="st18" width="93.3" height="4.6"/>
				<rect x="319.5" y="319.7" class="st18" width="72.6" height="4.6"/>
				<g>
					<rect x="319.5" y="337.6" class="st18" width="32.1" height="13.5"/>
				</g>
			</g>
		</g>
		<g>
			<line class="st18" x1="201.7" y1="227" x2="435.7" y2="227"/>
			<g>
				<path class="st18" d="M217.6,217.8c0,2-1.6,3.6-3.6,3.6c-2,0-3.6-1.6-3.6-3.6c0-2,1.6-3.6,3.6-3.6
					C216,214.2,217.6,215.9,217.6,217.8z"/>
				<path class="st18" d="M227.8,217.8c0,2-1.6,3.6-3.6,3.6c-2,0-3.6-1.6-3.6-3.6c0-2,1.6-3.6,3.6-3.6
					C226.1,214.2,227.8,215.9,227.8,217.8z"/>
				<path class="st18" d="M237.9,217.8c0,2-1.6,3.6-3.6,3.6c-2,0-3.6-1.6-3.6-3.6c0-2,1.6-3.6,3.6-3.6
					C236.3,214.2,237.9,215.9,237.9,217.8z"/>
			</g>
			<rect x="248" y="214.6" class="st18" width="174.5" height="6.5"/>
		</g>
		<line class="st18" x1="215.4" y1="258.2" x2="304.4" y2="356.5"/>
		<line class="st18" x1="304.4" y1="258.2" x2="215.4" y2="356.5"/>
		<g>
			<g>
				<rect x="213.6" y="256.3" class="st18" width="92.4" height="101.7"/>
			</g>
		</g>
		<g>
			<g>
				<g>
					<g>
						<path class="st18" d="M690.6,372.9v194.2H369V372.9c0-4.4,3.6-8,8-8h305.6C687.1,364.9,690.6,368.5,690.6,372.9z"/>
					</g>
				</g>
				<g>
					<path class="st18" d="M720.3,568.1H588.5c-0.3,2.7-2.5,4.9-5.2,4.9H476.4c-2.8,0-5-2.2-5.2-4.9H339.4c0,0.6-0.2,1.3-0.2,1.9
						v5.8c0,9.6,7.7,10.1,17.4,10.1h346.6c9.5,0,17.4-0.6,17.4-10.1V570C720.5,569.4,720.3,568.8,720.3,568.1z"/>
				</g>
			</g>
		</g>
		<polyline class="st18" points="557.8,547.5 388.9,547.5 388.9,384.2 670.7,384.2 670.7,547.5 557.8,547.5 		"/>
	</g>
	<g>
		<path class="st18" d="M447.2,458.8l-15.3,26.4l-7.9-14.9l-7.6,14.9L401,458.8h8.4l6.9,12.8l7.7-15.5l7.9,15.5l6.9-12.8H447.2z"/>
		<path class="st18" d="M475,478.7c-1.4,1.9-3.1,3.4-5,4.7c-1.9,1.2-4.9,1.8-9,1.6c-5.8,0.2-10-1.2-12.7-4.2
			c-2.7-2.5-4-5.9-3.7-10.2c-0.4-3.1,1-6.2,4.1-9.3c3.1-3.1,7-4.7,11.6-4.7c4.8-0.2,8.7,1.4,11.8,4.8c3,3.3,4.5,7.2,4.5,11.5h-25.2
			c0.9,4,4.1,6.2,9.6,6.5c3.6,0,6.2-1.2,7.9-3.5L475,478.7z M469.1,468.3c-1.6-3.4-4.4-5.3-8.6-5.6c-4.5,0.3-7.6,2.2-9.3,5.6H469.1z
			"/>
		<path class="st18" d="M506.8,470.1c0,4.1-1.2,7.6-3.6,10.5c-2.5,3.1-5.8,4.7-9.8,4.7c-5.5,0.3-9.3-1-11.5-4l-4.3,3.1l-0.1-43.4
			h7.5v17.9c2.3-2.1,4.9-3.1,7.9-3.1c4,0,7.3,1.4,9.9,4.1C505.5,462.7,506.8,466,506.8,470.1z M499.4,470.3c0-2.3-0.7-4.1-2.1-5.6
			c-1.4-1.5-3.2-2.3-5.4-2.3c-2.1,0-3.9,0.8-5.2,2.4c-1.3,1.6-2,3.5-2,5.6c0,2.3,0.6,4.3,1.9,5.8c1.3,1.6,3.1,2.4,5.4,2.4
			c2.4,0,4.2-0.8,5.5-2.4C498.8,474.7,499.4,472.7,499.4,470.3z"/>
		<path class="st18" d="M545.6,484.3h-7.4v-16c0-1.9-0.3-3.3-0.8-4c-0.7-0.8-1.9-1.2-3.8-1.2c-3.6,0-5.4,2.2-5.4,6.6v14.6h-7.4
			v-26.9l3.9,3.4c2.2-2.5,5-3.8,8.6-4c8.2,0,12.3,3.9,12.3,11.6V484.3z"/>
		<path class="st18" d="M576.5,471.1c0,4-1.5,7.4-4.6,10.1c-3,2.7-6.6,4-10.7,4c-4,0-7.5-1.3-10.5-4c-3.1-2.8-4.7-6.2-4.7-10.1
			c0-4.1,1.5-7.6,4.6-10.3c3-2.6,6.5-4,10.7-4c4.2,0,7.7,1.3,10.7,4C575,463.6,576.5,467,576.5,471.1z M569.1,471.1
			c0-2.1-0.8-3.9-2.3-5.4c-1.5-1.5-3.4-2.2-5.6-2.2c-2.2,0-4,0.7-5.6,2.2s-2.4,3.3-2.4,5.4c0,2.1,0.8,3.8,2.5,5.2
			c1.6,1.4,3.4,2.1,5.5,2.1c2.1,0,3.9-0.7,5.5-2.1C568.4,475,569.1,473.2,569.1,471.1z"/>
		<path class="st18" d="M605.1,457.6l-15.1,27.7l-15.3-27.7h8.4l6.9,13.2l6.8-13.2H605.1z"/>
		<path class="st18" d="M633,484.4h-7.4v-2.2c-2.2,2-4.8,3-8,3c-4,0-7.4-1.4-10-4.1c-2.6-2.8-3.9-6.2-3.9-10.2c0-4,1.3-7.3,4-10
			c2.6-2.7,6-4,10-4c4.9-0.2,8.4,1,10.5,3.5l4.8-2.9V484.4z M625.8,470.8c0-2.2-0.7-4-2-5.5c-1.3-1.4-3.1-2.2-5.3-2.2
			c-2.1,0-3.9,0.8-5.3,2.3c-1.4,1.5-2.1,3.3-2.1,5.5c0,2.1,0.6,3.9,1.9,5.5c1.4,1.7,3,2.6,5.1,2.6c2.3,0,4.2-0.8,5.6-2.3
			C625.1,475.1,625.8,473.1,625.8,470.8z"/>
		<path class="st18" d="M654.6,476.2c0,2.5-1,4.6-3,6.4c-2,1.8-4.7,2.6-7.9,2.4c-4-0.3-7.2-1.4-9.6-3.3l3.3-4.9c2.3,0.9,4.7,1.6,7,2
			c1.4-0.3,2.3-0.9,2.8-1.9c-0.2-1.5-1.2-2.6-3.1-3.3c-3.5-1.8-5.4-2.9-5.8-3.2c-2.1-1.6-3.1-3.4-3.1-5.5c0-2.3,0.9-4.2,2.7-5.8
			c1.8-1.6,3.9-2.3,6.2-2.3c2.1,0,3.9,0.5,5.3,1.5c1.2,0.4,2.4,1.1,3.5,2.2l-3.5,4c-1.7-0.9-3.6-1.4-5.6-1.4c-0.3,0-0.7,0.1-1,0.4
			s-0.5,0.6-0.5,1c0,0.7,1.1,1.5,3.2,2.4c2.9,1.2,4.8,2.2,5.9,3C653.5,471.6,654.6,473.7,654.6,476.2z"/>
	</g>
	<g>
		<g>
			<path class="st18" d="M219.9,279.1H91.8c-3.7,0-6.7,3-6.7,6.7v106.2c0,3.7,3,6.7,6.7,6.7h128.1c3.7,0,6.7-3,6.7-6.7V285.8
				C226.6,282.1,223.6,279.1,219.9,279.1L219.9,279.1z"/>
		</g>
		<line class="st18" x1="85.7" y1="300" x2="225.2" y2="300"/>
		<g>
			<path class="st18" d="M101,290.8c0,2-1.6,3.6-3.6,3.6c-2,0-3.6-1.6-3.6-3.6c0-2,1.6-3.6,3.6-3.6C99.4,287.1,101,288.8,101,290.8z
				"/>
			<path class="st18" d="M111.2,290.8c0,2-1.6,3.6-3.6,3.6c-2,0-3.6-1.6-3.6-3.6c0-2,1.6-3.6,3.6-3.6
				C109.6,287.1,111.2,288.8,111.2,290.8z"/>
			<path class="st18" d="M121.3,290.8c0,2-1.6,3.6-3.6,3.6c-2,0-3.6-1.6-3.6-3.6c0-2,1.6-3.6,3.6-3.6
				C119.7,287.1,121.3,288.8,121.3,290.8z"/>
		</g>
		<rect x="131.5" y="287.5" class="st18" width="84.2" height="6.5"/>
		<rect x="92.7" y="308.8" class="st3" width="30.8" height="2.8"/>
		<rect x="196.7" y="308.8" class="st3" width="19.5" height="2.8"/>
		<rect x="172" y="308.8" class="st3" width="19.5" height="2.8"/>
		<rect x="147.4" y="308.8" class="st3" width="19.5" height="2.8"/>
		<g>
			<rect x="158.8" y="322.1" class="st18" width="24.4" height="26.9"/>
		</g>
		<g>
			<g>
				<path class="st18" d="M217.1,349.8H191v-28.5h26.1V349.8L217.1,349.8z"/>
			</g>
			<g>
				<path class="st3" d="M191.8,349.7c-0.2,0-0.4-0.1-0.5-0.2c-0.3-0.3-0.3-0.8-0.1-1.1l24.4-26.9c0.3-0.3,0.8-0.3,1.1,0
					c0.3,0.3,0.3,0.7,0.1,1l-24.4,26.9C192.2,349.6,192,349.7,191.8,349.7L191.8,349.7z"/>
			</g>
			<g>
				<path class="st3" d="M216.2,349.7c-0.2,0-0.4-0.1-0.6-0.2l-24.4-26.9c-0.3-0.3-0.2-0.8,0.1-1c0.3-0.3,0.8-0.3,1.1,0l24.4,26.9
					c0.3,0.3,0.3,0.8-0.1,1.1C216.6,349.6,216.4,349.7,216.2,349.7L216.2,349.7z"/>
			</g>
		</g>
		<g>
			<g>
				<path class="st18" d="M151,349.8h-26.1v-28.5H151V349.8L151,349.8z"/>
			</g>
			<g>
				<path class="st3" d="M125.8,349.7c-0.2,0-0.4-0.1-0.5-0.2c-0.3-0.3-0.3-0.8-0.1-1.1l24.4-26.9c0.3-0.3,0.8-0.3,1.1,0
					c0.3,0.3,0.3,0.7,0.1,1l-24.4,26.9C126.2,349.6,126,349.7,125.8,349.7L125.8,349.7z"/>
			</g>
			<g>
				<path class="st3" d="M150.1,349.7c-0.2,0-0.4-0.1-0.6-0.2l-24.4-26.9c-0.3-0.3-0.2-0.8,0.1-1c0.3-0.3,0.8-0.3,1.1,0l24.4,26.9
					c0.3,0.3,0.3,0.8-0.1,1.1C150.5,349.6,150.3,349.7,150.1,349.7L150.1,349.7z"/>
			</g>
		</g>
		<g>
			<g>
				<path class="st18" d="M117.9,349.8H91.9v-28.5h26.1V349.8L117.9,349.8z"/>
			</g>
			<g>
				<path class="st3" d="M92.7,349.7c-0.2,0-0.4-0.1-0.5-0.2c-0.3-0.3-0.3-0.8-0.1-1.1l24.4-26.9c0.3-0.3,0.8-0.3,1.1,0
					c0.3,0.3,0.3,0.7,0.1,1l-24.4,26.9C93.1,349.6,92.9,349.7,92.7,349.7L92.7,349.7z"/>
			</g>
			<g>
				<path class="st3" d="M117.1,349.7c-0.2,0-0.4-0.1-0.6-0.2l-24.4-26.9c-0.3-0.3-0.2-0.8,0.1-1c0.3-0.3,0.8-0.3,1.1,0l24.4,26.9
					c0.3,0.3,0.3,0.8-0.1,1.1C117.4,349.6,117.3,349.7,117.1,349.7L117.1,349.7z"/>
			</g>
		</g>
		<g>
			<g>
				<path class="st18" d="M217.1,384.2H191v-28.5h26.1V384.2L217.1,384.2z"/>
			</g>
			<g>
				<path class="st3" d="M191.8,384.1c-0.2,0-0.4-0.1-0.5-0.2c-0.3-0.3-0.3-0.8-0.1-1.1l24.4-26.9c0.3-0.3,0.8-0.3,1.1,0
					c0.3,0.3,0.3,0.7,0.1,1l-24.4,26.9C192.2,384,192,384.1,191.8,384.1L191.8,384.1z"/>
			</g>
			<g>
				<path class="st3" d="M216.2,384.1c-0.2,0-0.4-0.1-0.6-0.2L191.3,357c-0.3-0.3-0.2-0.8,0.1-1c0.3-0.3,0.8-0.3,1.1,0l24.4,26.9
					c0.3,0.3,0.3,0.8-0.1,1.1C216.6,384,216.4,384.1,216.2,384.1L216.2,384.1z"/>
			</g>
		</g>
		<g>
			<g>
				<path class="st18" d="M117.9,384.2H91.8v-28.5h26.1V384.2L117.9,384.2z"/>
			</g>
			<g>
				<path class="st3" d="M92.7,384.1c-0.2,0-0.4-0.1-0.5-0.2c-0.3-0.3-0.3-0.8-0.1-1.1l24.4-26.9c0.3-0.3,0.8-0.3,1.1,0
					c0.3,0.3,0.3,0.7,0.1,1l-24.4,26.9C93.1,384,92.9,384.1,92.7,384.1L92.7,384.1z"/>
			</g>
			<g>
				<path class="st3" d="M117.1,384.1c-0.2,0-0.4-0.1-0.6-0.2L92.1,357c-0.3-0.3-0.2-0.8,0.1-1c0.3-0.3,0.8-0.3,1.1,0l24.4,26.9
					c0.3,0.3,0.3,0.8-0.1,1.1C117.4,384,117.3,384.1,117.1,384.1L117.1,384.1z"/>
			</g>
		</g>
		<g>
			<g>
				<path class="st18" d="M151,384.2h-26.1v-28.5H151V384.2L151,384.2z"/>
			</g>
			<g>
				<path class="st3" d="M125.7,384.1c-0.2,0-0.4-0.1-0.5-0.2c-0.3-0.3-0.3-0.8-0.1-1.1l24.4-26.9c0.3-0.3,0.8-0.3,1.1,0
					c0.3,0.3,0.3,0.7,0.1,1l-24.4,26.9C126.2,384,125.9,384.1,125.7,384.1L125.7,384.1z"/>
			</g>
			<g>
				<path class="st3" d="M150.1,384.1c-0.2,0-0.4-0.1-0.6-0.2L125.2,357c-0.3-0.3-0.2-0.8,0.1-1c0.3-0.3,0.8-0.3,1.1,0l24.4,26.9
					c0.3,0.3,0.3,0.8-0.1,1.1C150.5,384,150.3,384.1,150.1,384.1L150.1,384.1z"/>
			</g>
		</g>
		<g>
			<g>
				<path class="st18" d="M184,384.2H158v-28.5H184V384.2L184,384.2z"/>
			</g>
			<g>
				<path class="st3" d="M158.8,384.1c-0.2,0-0.4-0.1-0.5-0.2c-0.3-0.3-0.3-0.8-0.1-1.1l24.4-26.9c0.3-0.3,0.8-0.3,1.1,0
					c0.3,0.3,0.3,0.7,0.1,1l-24.4,26.9C159.2,384,159,384.1,158.8,384.1L158.8,384.1z"/>
			</g>
			<g>
				<path class="st3" d="M183.2,384.1c-0.2,0-0.4-0.1-0.6-0.2L158.2,357c-0.3-0.3-0.2-0.8,0.1-1c0.3-0.3,0.8-0.3,1.1,0l24.4,26.9
					c0.3,0.3,0.3,0.8-0.1,1.1C183.6,384,183.4,384.1,183.2,384.1L183.2,384.1z"/>
			</g>
		</g>
		<polygon class="st18" points="178.3,334.7 165.1,331.2 168.5,344.5 170.8,340.3 175,344.5 178.3,341.2 174.1,337 		"/>
	</g>
</g>
</svg>
